<svg xmlns="http://www.w3.org/2000/svg" xmlns:v="https://svgstorm.com"
viewBox = "0 0 256 256"
width="256"
height="256">
<g fill="None" fill-opacity="0.0" stroke="#000000" stroke-opacity="0.00" stroke-width="0.3"><path d="
M 0.00 109.00 
C 0.50 109.00 1.00 109.00 1.00 109.00
C 0.22 87.94 14.92 62.50 28.00 47.00
C 28.91 45.92 30.13 44.95 31.00 44.00
C 35.26 39.34 39.38 35.22 44.00 31.00
C 45.01 30.08 45.95 28.88 47.00 28.00
C 51.04 24.59 55.57 21.95 60.00 19.00
C 66.94 14.39 74.12 10.91 82.00 8.00
C 85.43 6.73 89.15 4.99 93.00 4.00
C 94.94 3.50 97.02 3.50 99.00 3.00
C 102.24 2.18 105.01 0.85 109.00 1.00
C 108.98 1.00 109.00 0.00 109.00 0.00
L 0.00 0.00
L 0.00 109.00 Z"/>
</g>
<g fill="None" fill-opacity="0.0" stroke="#38586E" stroke-opacity="0.24" stroke-width="0.3"><path d="
M 109.00 1.00 
C 110.54 0.93 112.48 2.70 113.00 0.00
L 109.00 0.00
C 109.00 0.00 108.98 1.00 109.00 1.00 Z"/>
</g>
<g fill="None" fill-opacity="0.0" stroke="#354763" stroke-opacity="0.80" stroke-width="0.3"><path d="
M 109.00 1.00 
C 105.01 0.85 102.24 2.18 99.00 3.00
C 101.42 3.36 104.82 7.53 107.74 6.60 C 110.67 5.67 112.56 2.71 115.00 1.00
C 115.23 0.84 115.00 0.00 115.00 0.00
L 113.00 0.00
C 112.48 2.70 110.54 0.93 109.00 1.00 Z"/>
</g>
<g fill="None" fill-opacity="0.0" stroke="#394E6A" stroke-opacity="0.98" stroke-width="0.3"><path d="
M 115.00 1.00 
C 124.71 1.49 123.29 12.44 131.00 15.00
C 127.46 16.16 129.17 17.06 130.00 20.00
C 127.58 20.21 124.21 19.08 125.00 16.00
C 121.71 15.89 119.94 24.02 116.00 18.00
C 113.90 18.65 112.55 20.40 110.00 21.00
C 111.36 26.46 106.69 29.75 105.00 34.00
C 98.55 45.95 97.97 54.57 99.00 68.00
C 93.51 64.05 88.60 59.33 81.78 60.78 C 74.96 62.22 72.22 51.88 68.00 49.00
C 72.96 49.23 76.88 49.20 81.00 51.00
C 82.72 48.75 84.71 45.45 88.00 46.00
C 89.02 45.67 91.16 45.43 92.00 45.00
C 93.10 44.43 94.13 41.84 95.00 41.00
C 87.87 39.24 79.74 39.57 73.00 39.00
C 80.44 33.75 70.30 24.15 80.00 21.00
C 75.20 20.91 71.13 18.93 70.00 25.00
C 65.97 24.23 61.12 23.36 60.00 19.00
C 55.57 21.95 51.04 24.59 47.00 28.00
C 46.38 28.80 45.04 30.44 44.00 31.00
C 39.38 35.22 35.26 39.34 31.00 44.00
C 30.39 45.12 28.69 46.47 28.00 47.00
C 14.92 62.50 0.22 87.94 1.00 109.00
C 3.06 111.00 1.37 113.57 1.00 116.00
C 0.80 117.29 1.70 119.49 0.00 120.00
L 0.00 136.00
C 1.34 136.47 1.57 139.58 0.00 140.00
L 0.00 141.00
C 2.21 141.35 2.47 144.94 0.00 143.00
L 0.00 147.00
C 3.37 162.67 8.26 179.16 17.00 193.00
C 16.28 187.90 19.84 182.70 23.00 179.00
C 23.22 177.68 21.80 173.91 22.00 172.00
C 22.09 171.16 22.16 169.83 22.00 169.00
C 21.58 166.81 20.72 165.30 22.00 163.00
C 21.16 163.58 19.39 164.71 19.00 163.00
C 17.47 159.85 20.60 154.87 16.00 153.00
C 24.84 147.25 14.75 133.03 25.00 130.00
C 24.26 120.61 36.60 123.52 42.00 121.00
C 43.85 120.14 44.87 115.82 48.01 117.01 C 51.15 118.20 53.78 115.28 55.00 113.00
C 56.84 109.55 69.88 96.29 74.00 107.00
C 79.43 110.19 88.12 107.21 93.68 110.32 C 99.24 113.44 105.53 106.74 110.08 105.08 C 114.62 103.41 115.42 93.43 115.00 89.00
C 112.65 85.97 112.14 81.02 111.00 77.00
C 110.42 74.94 110.77 71.27 110.00 69.00
C 107.84 67.74 107.35 65.32 105.00 65.00
C 107.56 67.73 103.83 68.03 102.00 69.00
C 100.36 64.26 101.45 58.81 100.00 54.00
C 101.71 52.81 104.12 51.35 104.00 49.00
C 97.87 53.34 100.90 44.41 102.99 39.99 C 105.08 35.57 110.79 30.72 116.00 31.00
C 114.77 28.63 111.14 27.01 111.00 24.00
C 115.57 23.86 119.55 22.38 124.00 24.00
C 121.59 19.67 130.37 20.43 134.01 20.01 C 137.65 19.58 143.99 22.72 148.00 19.00
C 144.91 18.76 141.81 18.83 140.00 16.00
C 137.72 17.24 135.39 18.76 132.00 18.00
C 131.41 11.88 138.18 13.93 142.00 13.00 C 145.83 12.08 153.73 10.47 154.00 15.00
C 157.78 12.09 165.58 9.85 169.00 14.00
C 169.14 14.46 169.00 15.00 169.00 15.00
C 172.08 17.57 180.98 13.30 183.00 12.00
C 171.86 6.27 159.11 2.49 147.00 0.00
L 146.00 0.00
C 147.55 4.07 137.92 0.71 136.00 0.00
L 115.00 0.00
C 115.00 0.00 115.23 0.84 115.00 1.00
M 84.00 73.00 
C 81.07 77.85 79.15 84.12 75.00 89.00
C 71.16 87.41 70.84 82.05 66.00 86.00
C 69.60 82.61 62.42 76.96 67.26 73.26 C 72.09 69.55 78.55 72.57 84.00 73.00 Z"/>
</g>
<g fill="None" fill-opacity="0.0" stroke="#32435F" stroke-opacity="0.54" stroke-width="0.3"><path d="
M 146.00 0.00 
L 136.00 0.00
C 137.92 0.71 147.55 4.07 146.00 0.00 Z"/>
</g>
<g fill="None" fill-opacity="0.0" stroke="#000000" stroke-opacity="0.00" stroke-width="0.3"><path d="
M 183.00 12.00 
C 183.40 12.21 184.65 12.84 185.00 13.00
C 193.67 17.11 201.63 21.78 209.00 28.00
C 210.12 28.94 211.03 30.06 212.00 31.00
C 212.62 31.60 213.43 32.45 214.00 33.00
C 214.50 33.04 215.00 33.00 215.00 33.00
C 218.08 34.51 221.03 38.39 223.00 41.00
C 223.67 41.89 224.29 43.24 225.00 44.00
C 225.95 45.02 227.11 45.94 228.00 47.00
C 229.73 49.05 231.25 51.99 233.00 54.00
C 233.65 54.74 234.39 55.17 235.00 56.00
C 237.53 59.47 239.40 63.16 241.00 67.00
C 241.11 67.26 241.79 68.59 242.00 69.00
C 244.20 73.27 246.26 77.36 248.00 82.00
C 248.29 82.77 248.67 83.95 249.00 85.00
C 250.82 90.76 252.48 96.81 254.00 103.00
C 254.25 104.00 254.76 105.56 255.00 107.00
C 255.12 107.69 254.82 108.95 256.00 109.00
L 256.00 0.00
L 147.00 0.00
C 159.11 2.49 171.86 6.27 183.00 12.00 Z"/>
</g>
<g fill="None" fill-opacity="0.0" stroke="#576582" stroke-opacity="0.98" stroke-width="0.3"><path d="
M 99.00 3.00 
C 97.02 3.50 94.94 3.50 93.00 4.00
C 90.55 5.63 88.97 13.39 84.00 12.00
C 84.30 10.43 83.75 8.39 82.00 8.00
C 74.12 10.91 66.94 14.39 60.00 19.00
C 61.12 23.36 65.97 24.23 70.00 25.00
C 71.13 18.93 75.20 20.91 80.00 21.00
C 70.30 24.15 80.44 33.75 73.00 39.00
C 79.74 39.57 87.87 39.24 95.00 41.00
C 94.13 41.84 93.10 44.43 92.00 45.00
C 93.00 45.05 94.00 44.96 95.00 45.00
C 94.40 47.79 92.08 49.93 92.00 53.00
C 87.62 52.67 81.25 53.46 80.00 58.00
C 75.32 58.84 75.25 53.47 73.00 51.00
C 76.36 50.43 78.09 50.57 81.00 52.00
C 82.30 48.77 85.99 48.08 88.00 46.00
C 84.71 45.45 82.72 48.75 81.00 51.00
C 76.88 49.20 72.96 49.23 68.00 49.00
C 72.22 51.88 74.96 62.22 81.78 60.78 C 88.60 59.33 93.51 64.05 99.00 68.00
C 97.97 54.57 98.55 45.95 105.00 34.00
C 103.99 35.06 102.34 34.98 101.00 35.00
C 102.99 37.92 100.37 41.76 97.00 42.00
C 93.46 34.36 89.94 39.69 83.78 37.22 C 77.62 34.75 86.66 29.44 91.00 29.00
C 90.48 26.73 87.60 26.02 86.00 24.00
C 88.45 19.79 95.08 16.73 96.00 12.00
C 103.72 12.85 120.07 6.89 120.00 19.00
C 118.44 19.41 117.31 18.54 116.00 18.00
C 119.94 24.02 121.71 15.89 125.00 16.00
C 124.21 19.08 127.58 20.21 130.00 20.00
C 129.17 17.06 127.46 16.16 131.00 15.00
C 123.29 12.44 124.71 1.49 115.00 1.00
C 112.56 2.71 110.67 5.67 107.74 6.60 C 104.82 7.53 101.42 3.36 99.00 3.00 Z"/>
</g>
<g fill="None" fill-opacity="0.0" stroke="#384663" stroke-opacity="0.75" stroke-width="0.3"><path d="
M 82.00 8.00 
C 83.75 8.39 84.30 10.43 84.00 12.00
C 88.97 13.39 90.55 5.63 93.00 4.00
C 89.15 4.99 85.43 6.73 82.00 8.00 Z"/>
</g>
<g fill="None" fill-opacity="0.0" stroke="#7C849D" stroke-opacity="1.00" stroke-width="0.3"><path d="
M 105.00 34.00 
C 106.69 29.75 111.36 26.46 110.00 21.00
C 112.55 20.40 113.90 18.65 116.00 18.00
C 117.31 18.54 118.44 19.41 120.00 19.00
C 120.07 6.89 103.72 12.85 96.00 12.00
C 95.08 16.73 88.45 19.79 86.00 24.00
C 87.60 26.02 90.48 26.73 91.00 29.00
C 86.66 29.44 77.62 34.75 83.78 37.22 C 89.94 39.69 93.46 34.36 97.00 42.00
C 100.37 41.76 102.99 37.92 101.00 35.00
C 102.34 34.98 103.99 35.06 105.00 34.00 Z"/>
</g>
<g fill="None" fill-opacity="0.0" stroke="#565F79" stroke-opacity="0.99" stroke-width="0.3"><path d="
M 148.00 19.00 
C 153.72 19.44 161.30 18.71 165.23 23.77 C 169.16 28.83 170.96 31.55 175.00 36.00
C 172.95 31.72 171.30 26.71 167.00 24.00
C 169.69 15.20 179.23 17.44 185.00 13.00
C 184.65 12.84 183.40 12.21 183.00 12.00
C 180.98 13.30 172.08 17.57 169.00 15.00
C 173.89 22.89 156.53 21.29 155.00 16.00
C 158.63 12.56 164.54 11.96 169.00 14.00
C 165.58 9.85 157.78 12.09 154.00 15.00
C 153.73 10.47 145.83 12.08 142.00 13.00 C 138.18 13.93 131.41 11.88 132.00 18.00
C 135.39 18.76 137.72 17.24 140.00 16.00
C 141.81 18.83 144.91 18.76 148.00 19.00 Z"/>
</g>
<g fill="None" fill-opacity="0.0" stroke="#777D96" stroke-opacity="1.00" stroke-width="0.3"><path d="
M 169.00 15.00 
C 169.00 15.00 169.14 14.46 169.00 14.00
C 164.54 11.96 158.63 12.56 155.00 16.00
C 156.53 21.29 173.89 22.89 169.00 15.00 Z"/>
</g>
<g fill="None" fill-opacity="0.0" stroke="#7C8095" stroke-opacity="0.96" stroke-width="0.3"><path d="
M 175.00 36.00 
C 177.83 41.91 183.45 45.58 186.00 52.00
C 187.60 56.03 189.41 68.74 198.03 65.97 C 206.64 63.21 213.18 69.14 221.01 66.01 C 228.84 62.87 233.78 66.13 241.00 69.00
C 239.91 67.59 241.06 67.66 241.00 67.00
C 239.40 63.16 237.53 59.47 235.00 56.00
C 233.69 54.75 233.38 54.72 233.00 54.00
C 231.25 51.99 229.73 49.05 228.00 47.00
C 227.21 46.39 225.55 45.01 225.00 44.00
C 224.29 43.24 223.67 41.89 223.00 41.00
C 220.82 38.62 217.61 35.83 215.00 34.00
C 217.95 37.86 219.22 40.79 214.00 43.00
C 215.71 46.60 220.06 46.22 223.00 48.00
C 221.13 59.28 210.65 59.28 201.92 60.92 C 193.20 62.57 187.09 50.46 188.00 43.00
C 192.32 45.17 193.00 39.37 198.00 41.00
C 196.84 35.42 202.75 35.83 205.00 33.00
C 207.67 33.50 207.94 36.69 211.00 36.00
C 210.43 33.05 213.23 34.03 214.00 33.00
C 213.43 32.45 212.62 31.60 212.00 31.00
C 210.79 30.38 209.57 28.73 209.00 28.00
C 201.63 21.78 193.67 17.11 185.00 13.00
C 179.23 17.44 169.69 15.20 167.00 24.00
C 171.30 26.71 172.95 31.72 175.00 36.00 Z"/>
</g>
<g fill="None" fill-opacity="0.0" stroke="#23232B" stroke-opacity="1.00" stroke-width="0.3"><path d="
M 110.00 69.00 
C 111.35 69.79 116.07 71.23 117.00 75.00
C 116.44 72.10 117.39 67.94 121.00 68.00
C 120.21 73.44 128.88 76.69 128.00 80.00
C 126.13 80.96 122.78 79.43 121.00 79.00
C 119.57 78.65 118.43 77.39 117.00 77.00
C 115.97 80.26 118.44 82.25 119.00 85.00
C 119.76 87.77 120.32 90.21 119.00 93.00
C 117.58 91.96 117.95 88.36 115.00 89.00
C 115.42 93.43 114.62 103.41 110.08 105.08 C 105.53 106.74 99.24 113.44 93.68 110.32 C 88.12 107.21 79.43 110.19 74.00 107.00
C 74.38 107.98 74.37 109.03 75.00 110.00
C 75.83 111.28 76.35 111.39 77.00 113.00
C 81.71 124.72 83.33 138.11 84.00 151.00 C 84.67 163.89 88.79 177.93 88.00 190.00
C 84.20 173.47 81.66 156.53 78.00 140.00
C 77.50 138.29 76.64 136.68 76.00 135.00
C 73.55 128.55 64.94 110.25 55.00 113.00
C 53.78 115.28 51.15 118.20 48.01 117.01 C 44.87 115.82 43.85 120.14 42.00 121.00
C 40.63 125.74 42.86 129.72 47.00 126.00
C 42.88 135.58 34.48 127.22 28.00 126.00
C 28.00 127.67 28.00 129.33 28.00 131.00
C 28.43 132.75 31.73 133.72 33.00 135.00
C 31.97 143.32 28.38 149.09 29.00 158.00
C 29.00 158.50 29.00 159.00 29.00 159.00
C 30.95 161.79 28.65 162.29 26.00 162.00
C 27.70 165.13 28.11 169.74 32.00 165.00
C 29.79 170.03 26.39 174.54 23.00 179.00
C 19.84 182.70 16.28 187.90 17.00 193.00
C 31.66 216.20 49.56 230.44 73.00 244.00
C 72.69 243.40 75.19 240.11 74.00 239.00
C 69.57 238.50 67.21 227.30 69.78 221.78 C 72.35 216.25 73.24 206.36 73.00 201.00
C 70.56 207.06 69.18 214.26 68.00 221.00
C 63.89 210.01 73.35 198.45 69.00 187.00
C 67.84 192.90 64.39 198.81 63.00 205.00
C 60.34 197.49 69.81 189.61 67.66 181.32 C 65.52 173.03 63.50 164.83 63.00 156.00
C 66.83 159.56 65.20 167.66 67.00 172.00 C 68.80 176.35 67.69 185.55 73.00 184.00
C 72.61 203.61 82.72 222.23 88.00 241.00
C 86.20 237.93 85.62 238.66 83.00 240.00
C 78.31 229.64 79.78 217.42 75.00 207.00
C 71.63 219.31 75.45 231.48 82.00 242.00
C 79.62 242.63 80.05 246.57 77.00 246.00
C 87.99 250.19 99.47 254.97 112.00 255.00
C 113.33 255.00 114.67 254.95 116.00 255.00
C 117.28 255.05 119.49 254.40 120.00 256.00
L 136.00 256.00
C 136.27 254.72 138.04 255.07 139.00 255.00
C 140.32 254.91 141.68 255.00 143.00 255.00
C 148.68 255.00 153.63 254.13 159.00 253.00
C 159.42 250.08 158.22 247.80 158.00 245.00
C 155.70 216.04 151.15 187.43 166.00 162.00
C 168.75 155.56 166.80 151.82 161.75 147.25 C 156.70 142.68 156.03 137.72 154.00 132.00
C 153.84 131.56 154.00 131.00 154.00 131.00
C 150.63 126.20 144.88 130.24 139.99 129.99 C 135.10 129.74 128.30 128.94 137.00 126.00
C 141.07 124.63 147.33 123.83 151.00 122.00
C 151.20 121.90 150.75 120.26 151.00 120.00
C 150.34 117.47 143.60 116.84 140.93 116.07 C 138.25 115.30 132.54 113.70 130.00 113.00
C 128.20 112.50 125.60 113.67 125.00 111.00
C 124.78 110.05 125.17 108.96 125.00 108.00
C 127.67 108.00 130.33 108.00 133.00 108.00
C 140.56 108.00 147.97 110.17 154.00 110.00
C 148.43 108.87 136.38 104.93 132.00 102.00
C 130.23 100.82 127.65 100.69 130.00 98.00
C 130.75 97.15 130.76 97.18 132.00 97.00
C 135.03 96.55 137.24 97.77 140.00 98.00
C 142.16 98.18 144.93 97.41 147.00 98.00
C 152.11 98.43 155.21 101.63 160.00 103.00
C 162.23 98.66 160.62 93.45 160.00 89.00
C 159.61 86.56 157.16 72.77 162.00 76.00
C 165.77 78.51 161.83 88.37 165.33 93.67 C 168.83 98.97 167.69 110.07 167.00 116.00
C 162.81 117.21 156.43 130.51 166.00 129.00
C 165.95 133.84 169.80 141.89 164.00 144.00
C 169.14 144.45 172.89 149.03 178.00 147.00
C 180.09 151.05 177.42 157.71 183.00 159.00
C 182.39 165.53 173.65 168.47 169.00 164.00
C 169.00 164.50 169.00 165.00 169.00 165.00
C 168.44 166.04 168.31 167.80 168.00 169.00
C 172.44 169.15 176.40 167.29 181.00 168.00
C 170.05 175.24 188.27 167.72 190.00 162.00
C 188.54 168.77 180.73 173.30 175.00 176.00
C 177.98 177.23 175.81 179.48 176.00 182.00
C 182.40 180.34 181.43 184.14 181.00 189.00
C 175.15 187.16 173.25 179.64 169.00 176.00
C 169.99 199.88 171.45 225.47 173.00 248.00
C 185.88 242.70 197.97 236.82 209.00 228.00
C 209.46 227.47 211.23 225.45 212.00 225.00
C 213.52 223.53 215.54 222.23 217.00 221.00
C 216.88 221.15 217.76 217.67 219.00 217.00
C 218.26 211.31 218.51 204.42 213.00 201.00
C 214.71 198.73 216.18 194.98 211.00 196.00
C 209.32 191.69 215.50 194.53 215.00 191.00
C 211.97 184.31 212.11 177.12 215.00 169.00
C 218.14 161.00 210.92 152.35 202.00 151.00
C 201.19 151.41 199.78 151.26 199.00 152.00
C 201.31 153.06 199.42 155.71 203.00 155.00
C 199.73 157.32 195.40 159.31 191.00 159.00
C 191.80 154.52 196.21 149.91 201.00 150.00
C 197.70 142.10 188.57 131.60 179.00 138.00
C 172.13 118.45 164.93 96.71 171.00 76.00
C 178.35 81.15 179.76 68.04 185.00 75.00
C 185.51 70.73 184.93 67.30 186.00 63.00
C 186.06 60.73 186.60 54.90 186.00 52.00
C 183.45 45.58 177.83 41.91 175.00 36.00
C 170.96 31.55 169.16 28.83 165.23 23.77 C 161.30 18.71 153.72 19.44 148.00 19.00
C 143.99 22.72 137.65 19.58 134.01 20.01 C 130.37 20.43 121.59 19.67 124.00 24.00
C 119.55 22.38 115.57 23.86 111.00 24.00
C 111.14 27.01 114.77 28.63 116.00 31.00
C 110.79 30.72 105.08 35.57 102.99 39.99 C 100.90 44.41 97.87 53.34 104.00 49.00
C 104.12 51.35 101.71 52.81 100.00 54.00
C 101.45 58.81 100.36 64.26 102.00 69.00
C 103.83 68.03 107.56 67.73 105.00 65.00
C 107.35 65.32 107.84 67.74 110.00 69.00
M 176.00 69.00 
C 175.19 75.49 168.80 68.40 176.00 69.00
M 140.00 170.00 
C 129.09 151.49 121.04 130.61 110.00 112.00
C 123.68 127.83 130.87 150.86 140.00 170.00
M 138.00 183.00 
C 136.46 181.57 135.85 182.00 137.00 179.00
C 141.75 166.60 152.10 155.06 154.00 140.00
C 154.72 151.68 144.85 163.49 144.00 176.00
C 146.68 177.00 150.33 180.21 149.92 184.08 C 149.52 187.94 143.05 187.84 148.00 183.00
C 143.76 180.79 140.58 187.77 138.00 183.00
M 183.00 146.00 
C 182.69 144.98 182.67 143.94 182.00 143.00
C 184.48 140.06 186.97 145.63 190.00 145.00
C 190.86 150.97 182.88 152.97 183.00 146.00
M 71.00 150.00 
C 71.53 152.09 74.26 155.35 72.00 157.00
C 71.37 154.93 69.36 151.50 71.00 150.00
M 79.00 178.00 
C 76.96 175.13 76.75 170.80 74.00 168.00
C 78.10 168.68 79.25 174.30 79.00 178.00
M 79.00 192.00 
C 76.08 190.55 78.43 184.56 74.00 187.00
C 76.68 180.86 80.55 188.30 79.00 192.00
M 91.00 229.00 
C 91.73 229.73 90.29 231.67 89.29 230.63 C 88.30 229.60 90.45 228.45 91.00 229.00
M 92.00 251.00 
C 89.73 248.69 88.74 245.17 88.00 242.00
C 90.38 244.10 92.15 247.57 92.00 251.00 Z"/>
</g>
<g fill="None" fill-opacity="0.0" stroke="#2E4160" stroke-opacity="0.44" stroke-width="0.3"><path d="
M 44.00 31.00 
C 45.04 30.44 46.38 28.80 47.00 28.00
C 45.95 28.88 45.01 30.08 44.00 31.00 Z"/>
</g>
<g fill="None" fill-opacity="0.0" stroke="#6D758C" stroke-opacity="0.44" stroke-width="0.3"><path d="
M 212.00 31.00 
C 211.03 30.06 210.12 28.94 209.00 28.00
C 209.57 28.73 210.79 30.38 212.00 31.00 Z"/>
</g>
<g fill="None" fill-opacity="0.0" stroke="#9599AD" stroke-opacity="1.00" stroke-width="0.3"><path d="
M 215.00 34.00 
C 214.76 33.68 215.00 33.00 215.00 33.00
C 215.00 33.00 214.50 33.04 214.00 33.00
C 213.23 34.03 210.43 33.05 211.00 36.00
C 207.94 36.69 207.67 33.50 205.00 33.00
C 202.75 35.83 196.84 35.42 198.00 41.00
C 193.00 39.37 192.32 45.17 188.00 43.00
C 187.09 50.46 193.20 62.57 201.92 60.92 C 210.65 59.28 221.13 59.28 223.00 48.00
C 220.06 46.22 215.71 46.60 214.00 43.00
C 219.22 40.79 217.95 37.86 215.00 34.00 Z"/>
</g>
<g fill="None" fill-opacity="0.0" stroke="#888899" stroke-opacity="0.02" stroke-width="0.3"><path d="
M 215.00 34.00 
C 217.61 35.83 220.82 38.62 223.00 41.00
C 221.03 38.39 218.08 34.51 215.00 33.00
C 215.00 33.00 214.76 33.68 215.00 34.00 Z"/>
</g>
<g fill="None" fill-opacity="0.0" stroke="#2E425E" stroke-opacity="0.44" stroke-width="0.3"><path d="
M 28.00 47.00 
C 28.69 46.47 30.39 45.12 31.00 44.00
C 30.13 44.95 28.91 45.92 28.00 47.00 Z"/>
</g>
<g fill="None" fill-opacity="0.0" stroke="#888AA1" stroke-opacity="0.44" stroke-width="0.3"><path d="
M 228.00 47.00 
C 227.11 45.94 225.95 45.02 225.00 44.00
C 225.55 45.01 227.21 46.39 228.00 47.00 Z"/>
</g>
<g fill="None" fill-opacity="0.0" stroke="#707D9B" stroke-opacity="1.00" stroke-width="0.3"><path d="
M 88.00 46.00 
C 85.99 48.08 82.30 48.77 81.00 52.00
C 78.09 50.57 76.36 50.43 73.00 51.00
C 75.25 53.47 75.32 58.84 80.00 58.00
C 81.25 53.46 87.62 52.67 92.00 53.00
C 92.08 49.93 94.40 47.79 95.00 45.00
C 94.00 44.96 93.00 45.05 92.00 45.00
C 91.16 45.43 89.02 45.67 88.00 46.00 Z"/>
</g>
<g fill="None" fill-opacity="0.0" stroke="#616B85" stroke-opacity="0.98" stroke-width="0.3"><path d="
M 186.00 63.00 
C 187.40 66.28 189.71 65.79 187.00 70.00
C 192.34 68.05 196.00 74.11 201.67 70.67 C 207.35 67.23 210.24 76.74 216.00 73.00
C 216.87 74.78 218.69 76.77 219.00 79.00
C 222.29 74.97 229.06 77.27 227.00 83.00
C 234.03 80.75 242.00 79.21 248.00 82.00
C 246.26 77.36 244.20 73.27 242.00 69.00
C 241.76 70.67 241.23 69.09 241.00 69.00
C 233.78 66.13 228.84 62.87 221.01 66.01 C 213.18 69.14 206.64 63.21 198.03 65.97 C 189.41 68.74 187.60 56.03 186.00 52.00
C 186.60 54.90 186.06 60.73 186.00 63.00 Z"/>
</g>
<g fill="None" fill-opacity="0.0" stroke="#A1A4B5" stroke-opacity="0.32" stroke-width="0.3"><path d="
M 235.00 56.00 
C 234.39 55.17 233.65 54.74 233.00 54.00
C 233.38 54.72 233.69 54.75 235.00 56.00 Z"/>
</g>
<g fill="None" fill-opacity="0.0" stroke="#3F5470" stroke-opacity="1.00" stroke-width="0.3"><path d="
M 201.00 150.00 
C 201.11 150.26 201.79 150.97 202.00 151.00
C 210.92 152.35 218.14 161.00 215.00 169.00
C 217.49 166.36 222.77 167.36 226.00 167.00
C 226.34 162.36 230.51 163.06 234.00 162.00
C 240.35 161.29 245.42 163.50 251.00 163.00
C 251.50 162.96 252.00 163.00 252.00 163.00
C 253.20 158.27 255.34 153.09 255.00 148.00
C 251.59 147.57 249.04 147.88 248.00 151.00
C 245.18 147.45 241.31 146.31 237.00 148.00
C 234.17 142.66 224.53 143.61 224.00 137.00
C 216.23 136.62 215.52 132.01 207.90 135.90 C 200.29 139.80 202.79 130.24 206.75 126.75 C 210.72 123.26 207.47 112.73 217.00 115.00
C 219.73 108.28 213.19 106.57 213.00 100.00
C 219.13 101.27 227.68 96.05 233.67 98.33 C 239.67 100.61 246.15 104.28 253.00 105.00
C 247.73 104.06 235.14 98.48 235.00 94.00
C 228.03 97.94 221.23 95.76 214.00 93.00
C 223.75 84.87 236.40 89.40 249.00 85.00
C 248.67 83.95 248.29 82.77 248.00 82.00
C 242.00 79.21 234.03 80.75 227.00 83.00
C 229.06 77.27 222.29 74.97 219.00 79.00
C 218.69 76.77 216.87 74.78 216.00 73.00
C 210.24 76.74 207.35 67.23 201.67 70.67 C 196.00 74.11 192.34 68.05 187.00 70.00
C 189.71 65.79 187.40 66.28 186.00 63.00
C 184.93 67.30 185.51 70.73 185.00 75.00
C 179.76 68.04 178.35 81.15 171.00 76.00
C 164.93 96.71 172.13 118.45 179.00 138.00
C 188.57 131.60 197.70 142.10 201.00 150.00 Z"/>
</g>
<g fill="None" fill-opacity="0.0" stroke="#767B8F" stroke-opacity="0.48" stroke-width="0.3"><path d="
M 241.00 69.00 
C 241.23 69.09 241.76 70.67 242.00 69.00
C 241.79 68.59 241.11 67.26 241.00 67.00
C 241.06 67.66 239.91 67.59 241.00 69.00 Z"/>
</g>
<g fill="None" fill-opacity="0.0" stroke="#543F43" stroke-opacity="1.00" stroke-width="0.3"><path d="
M 110.00 69.00 
C 110.77 71.27 110.42 74.94 111.00 77.00
C 110.93 75.21 112.09 72.23 113.00 71.00
C 116.67 73.65 112.70 75.76 113.00 79.00
C 116.88 78.73 116.63 83.50 117.00 87.00
C 118.26 86.92 117.56 84.94 119.00 85.00
C 118.44 82.25 115.97 80.26 117.00 77.00
C 118.43 77.39 119.57 78.65 121.00 79.00
C 117.99 77.23 116.20 70.68 120.00 69.00
C 118.62 74.94 126.09 75.66 128.00 80.00
C 128.88 76.69 120.21 73.44 121.00 68.00
C 117.39 67.94 116.44 72.10 117.00 75.00
C 116.07 71.23 111.35 69.79 110.00 69.00 Z"/>
</g>
<g fill="None" fill-opacity="0.0" stroke="#927979" stroke-opacity="1.00" stroke-width="0.3"><path d="
M 121.00 79.00 
C 122.78 79.43 126.13 80.96 128.00 80.00
C 126.09 75.66 118.62 74.94 120.00 69.00
C 116.20 70.68 117.99 77.23 121.00 79.00 Z"/>
</g>
<g fill="None" fill-opacity="0.0" stroke="#535B6E" stroke-opacity="1.00" stroke-width="0.3"><path d="
M 176.00 69.00 
C 168.80 68.40 175.19 75.49 176.00 69.00 Z"/>
</g>
<g fill="None" fill-opacity="0.0" stroke="#536482" stroke-opacity="1.00" stroke-width="0.3"><path d="
M 84.00 73.00 
C 78.55 72.57 72.09 69.55 67.26 73.26 C 62.42 76.96 69.60 82.61 66.00 86.00
C 70.84 82.05 71.16 87.41 75.00 89.00
C 79.15 84.12 81.07 77.85 84.00 73.00 Z"/>
</g>
<g fill="None" fill-opacity="0.0" stroke="#897278" stroke-opacity="1.00" stroke-width="0.3"><path d="
M 111.00 77.00 
C 112.14 81.02 112.65 85.97 115.00 89.00
C 117.95 88.36 117.58 91.96 119.00 93.00
C 120.32 90.21 119.76 87.77 119.00 85.00
C 117.56 84.94 118.26 86.92 117.00 87.00
C 116.63 83.50 116.88 78.73 113.00 79.00
C 112.70 75.76 116.67 73.65 113.00 71.00
C 112.09 72.23 110.93 75.21 111.00 77.00 Z"/>
</g>
<g fill="None" fill-opacity="0.0" stroke="#695658" stroke-opacity="1.00" stroke-width="0.3"><path d="
M 160.00 89.00 
C 161.62 94.90 161.04 104.10 166.00 107.00
C 167.71 95.84 158.90 86.65 162.00 76.00
C 157.16 72.77 159.61 86.56 160.00 89.00 Z"/>
</g>
<g fill="None" fill-opacity="0.0" stroke="#3F3337" stroke-opacity="1.00" stroke-width="0.3"><path d="
M 160.00 89.00 
C 160.62 93.45 162.23 98.66 160.00 103.00
C 155.21 101.63 152.11 98.43 147.00 98.00
C 147.14 98.04 148.59 98.84 149.00 99.00
C 151.68 100.05 151.00 102.01 151.00 105.00
C 148.56 105.08 145.60 104.65 144.00 103.00
C 143.51 102.92 143.00 103.00 143.00 103.00
C 139.78 102.47 135.10 102.99 132.00 102.00
C 136.38 104.93 148.43 108.87 154.00 110.00
C 156.78 109.92 162.56 111.42 163.00 108.00
C 171.85 111.04 160.82 117.53 159.08 124.08 C 157.34 130.64 168.59 137.03 161.00 144.00
C 164.51 144.96 168.22 146.22 169.00 150.00
C 171.82 148.70 174.97 148.60 178.00 148.00
C 177.36 153.71 178.48 158.87 180.00 164.00
C 178.24 163.95 176.93 165.53 175.00 165.00
C 171.08 164.97 171.99 162.79 169.00 162.00
C 168.97 162.50 169.00 163.50 169.00 164.00
C 173.65 168.47 182.39 165.53 183.00 159.00
C 177.42 157.71 180.09 151.05 178.00 147.00
C 172.89 149.03 169.14 144.45 164.00 144.00
C 169.80 141.89 165.95 133.84 166.00 129.00
C 156.43 130.51 162.81 117.21 167.00 116.00
C 167.69 110.07 168.83 98.97 165.33 93.67 C 161.83 88.37 165.77 78.51 162.00 76.00
C 158.90 86.65 167.71 95.84 166.00 107.00
C 161.04 104.10 161.62 94.90 160.00 89.00 Z"/>
</g>
<g fill="None" fill-opacity="0.0" stroke="#31415B" stroke-opacity="0.96" stroke-width="0.3"><path d="
M 253.00 105.00 
C 254.07 104.97 253.85 105.42 254.00 103.00
C 252.48 96.81 250.82 90.76 249.00 85.00
C 236.40 89.40 223.75 84.87 214.00 93.00
C 221.23 95.76 228.03 97.94 235.00 94.00
C 235.14 98.48 247.73 104.06 253.00 105.00 Z"/>
</g>
<g fill="None" fill-opacity="0.0" stroke="#8C7277" stroke-opacity="1.00" stroke-width="0.3"><path d="
M 130.00 98.00 
C 128.55 102.11 135.11 101.48 137.00 100.00
C 137.70 96.46 132.71 99.41 132.00 97.00
C 130.76 97.18 130.75 97.15 130.00 98.00 Z"/>
</g>
<g fill="None" fill-opacity="0.0" stroke="#644F52" stroke-opacity="1.00" stroke-width="0.3"><path d="
M 130.00 98.00 
C 127.65 100.69 130.23 100.82 132.00 102.00
C 135.10 102.99 139.78 102.47 143.00 103.00
C 141.69 101.87 140.11 100.53 138.00 101.00
C 137.18 98.99 139.82 99.53 140.00 98.00
C 137.24 97.77 135.03 96.55 132.00 97.00
C 132.71 99.41 137.70 96.46 137.00 100.00
C 135.11 101.48 128.55 102.11 130.00 98.00 Z"/>
</g>
<g fill="None" fill-opacity="0.0" stroke="#846A69" stroke-opacity="1.00" stroke-width="0.3"><path d="
M 143.00 103.00 
C 143.00 103.00 143.51 102.92 144.00 103.00
C 145.88 103.32 150.93 102.20 149.00 99.00
C 148.59 98.84 147.14 98.04 147.00 98.00
C 144.93 97.41 142.16 98.18 140.00 98.00
C 139.82 99.53 137.18 98.99 138.00 101.00
C 140.11 100.53 141.69 101.87 143.00 103.00 Z"/>
</g>
<g fill="None" fill-opacity="0.0" stroke="#5B6981" stroke-opacity="0.99" stroke-width="0.3"><path d="
M 255.00 148.00 
C 254.97 147.50 255.00 147.00 255.00 147.00
C 255.03 146.00 254.98 145.00 255.00 144.00
C 250.68 149.61 244.99 141.81 240.33 143.33 C 235.66 144.86 228.36 141.61 229.00 136.00
C 220.83 135.33 213.53 131.35 205.00 132.00
C 211.05 128.89 205.84 117.63 213.70 116.70 C 221.55 115.76 220.27 108.96 217.00 104.00
C 220.33 106.19 224.70 105.30 225.00 101.00
C 234.36 98.34 242.03 109.26 250.00 105.00
C 251.09 106.01 252.59 107.22 254.00 108.00
C 254.08 107.65 254.87 107.26 255.00 107.00
C 254.76 105.56 254.25 104.00 254.00 103.00
C 253.85 105.42 254.07 104.97 253.00 105.00
C 246.15 104.28 239.67 100.61 233.67 98.33 C 227.68 96.05 219.13 101.27 213.00 100.00
C 213.19 106.57 219.73 108.28 217.00 115.00
C 207.47 112.73 210.72 123.26 206.75 126.75 C 202.79 130.24 200.29 139.80 207.90 135.90 C 215.52 132.01 216.23 136.62 224.00 137.00
C 224.53 143.61 234.17 142.66 237.00 148.00
C 241.31 146.31 245.18 147.45 248.00 151.00
C 249.04 147.88 251.59 147.57 255.00 148.00 Z"/>
</g>
<g fill="None" fill-opacity="0.0" stroke="#634B4E" stroke-opacity="1.00" stroke-width="0.3"><path d="
M 144.00 103.00 
C 145.60 104.65 148.56 105.08 151.00 105.00
C 151.00 102.01 151.68 100.05 149.00 99.00
C 150.93 102.20 145.88 103.32 144.00 103.00 Z"/>
</g>
<g fill="None" fill-opacity="0.0" stroke="#788196" stroke-opacity="0.99" stroke-width="0.3"><path d="
M 255.00 147.00 
C 255.25 146.75 256.00 147.00 256.00 147.00
L 256.00 140.00
C 243.45 148.51 230.35 131.33 218.00 129.00
C 223.66 121.04 218.47 112.90 227.30 107.30 C 236.13 101.69 247.65 118.36 255.00 115.00
C 253.71 113.40 253.58 109.98 254.00 108.00
C 252.59 107.22 251.09 106.01 250.00 105.00
C 242.03 109.26 234.36 98.34 225.00 101.00
C 224.70 105.30 220.33 106.19 217.00 104.00
C 220.27 108.96 221.55 115.76 213.70 116.70 C 205.84 117.63 211.05 128.89 205.00 132.00
C 213.53 131.35 220.83 135.33 229.00 136.00
C 228.36 141.61 235.66 144.86 240.33 143.33 C 244.99 141.81 250.68 149.61 255.00 144.00
C 254.98 145.00 255.03 146.00 255.00 147.00 Z"/>
</g>
<g fill="None" fill-opacity="0.0" stroke="#998E8E" stroke-opacity="1.00" stroke-width="0.3"><path d="
M 55.00 113.00 
C 64.94 110.25 73.55 128.55 76.00 135.00
C 75.81 134.07 75.62 128.94 76.00 128.00
C 76.17 127.57 76.13 126.46 76.00 126.00
C 74.31 122.55 71.09 119.44 70.00 116.00
C 72.01 114.50 74.24 112.65 75.00 110.00
C 74.37 109.03 74.38 107.98 74.00 107.00
C 69.88 96.29 56.84 109.55 55.00 113.00 Z"/>
</g>
<g fill="None" fill-opacity="0.0" stroke="#9499AD" stroke-opacity="1.00" stroke-width="0.3"><path d="
M 256.00 140.00 
L 256.00 139.00
C 254.36 132.41 254.32 122.52 256.00 116.00
L 256.00 115.00
C 255.50 115.00 255.00 115.00 255.00 115.00
C 247.65 118.36 236.13 101.69 227.30 107.30 C 218.47 112.90 223.66 121.04 218.00 129.00
C 230.35 131.33 243.45 148.51 256.00 140.00 Z"/>
</g>
<g fill="None" fill-opacity="0.0" stroke="#808499" stroke-opacity="0.45" stroke-width="0.3"><path d="
M 254.00 108.00 
C 253.58 109.98 253.71 113.40 255.00 115.00
C 255.00 115.00 255.50 115.00 256.00 115.00
L 256.00 109.00
C 254.82 108.95 255.12 107.69 255.00 107.00
C 254.87 107.26 254.08 107.65 254.00 108.00 Z"/>
</g>
<g fill="None" fill-opacity="0.0" stroke="#887070" stroke-opacity="1.00" stroke-width="0.3"><path d="
M 125.00 111.00 
C 126.14 113.31 133.19 111.52 135.22 112.78 C 137.26 114.04 145.03 113.72 145.00 111.00
C 144.53 106.56 135.79 111.03 133.00 108.00
C 130.33 108.00 127.67 108.00 125.00 108.00
C 125.17 108.96 124.78 110.05 125.00 111.00 Z"/>
</g>
<g fill="None" fill-opacity="0.0" stroke="#645053" stroke-opacity="1.00" stroke-width="0.3"><path d="
M 125.00 111.00 
C 125.60 113.67 128.20 112.50 130.00 113.00
C 134.70 113.78 157.04 113.69 151.00 120.00
C 150.75 120.26 151.20 121.90 151.00 122.00
C 156.18 119.84 154.54 115.26 154.00 111.00
C 157.33 111.00 160.67 111.00 164.00 111.00
C 163.25 117.52 157.45 121.79 156.00 128.00
C 151.59 127.12 146.91 127.21 143.00 125.00
C 142.53 129.39 136.45 128.92 133.00 129.00
C 132.18 125.85 136.49 128.17 137.00 126.00
C 128.30 128.94 135.10 129.74 139.99 129.99 C 144.88 130.24 150.63 126.20 154.00 131.00
C 154.83 130.38 155.59 129.60 157.00 130.00
C 156.74 132.39 155.64 134.93 154.00 132.00
C 156.03 137.72 156.70 142.68 161.75 147.25 C 166.80 151.82 168.75 155.56 166.00 162.00
C 166.62 160.94 166.55 160.30 167.00 159.00
C 167.88 156.45 170.02 154.97 168.00 152.00
C 169.77 153.68 171.91 153.98 174.00 155.00
C 173.52 158.53 177.52 161.70 175.00 165.00
C 176.93 165.53 178.24 163.95 180.00 164.00
C 178.48 158.87 177.36 153.71 178.00 148.00
C 174.97 148.60 171.82 148.70 169.00 150.00
C 168.22 146.22 164.51 144.96 161.00 144.00
C 168.59 137.03 157.34 130.64 159.08 124.08 C 160.82 117.53 171.85 111.04 163.00 108.00
C 162.56 111.42 156.78 109.92 154.00 110.00
C 147.97 110.17 140.56 108.00 133.00 108.00
C 135.79 111.03 144.53 106.56 145.00 111.00
C 145.03 113.72 137.26 114.04 135.22 112.78 C 133.19 111.52 126.14 113.31 125.00 111.00
M 156.00 135.00 
C 164.38 134.98 155.76 144.08 156.00 135.00 Z"/>
</g>
<g fill="None" fill-opacity="0.0" stroke="#32526B" stroke-opacity="0.45" stroke-width="0.3"><path d="
M 0.00 116.00 
C 0.50 116.00 1.00 116.00 1.00 116.00
C 1.37 113.57 3.06 111.00 1.00 109.00
C 1.00 109.00 0.50 109.00 0.00 109.00
L 0.00 116.00 Z"/>
</g>
<g fill="None" fill-opacity="0.0" stroke="#796C6A" stroke-opacity="1.00" stroke-width="0.3"><path d="
M 76.00 126.00 
C 74.51 120.85 77.69 116.47 77.00 113.00
C 76.35 111.39 75.83 111.28 75.00 110.00
C 74.24 112.65 72.01 114.50 70.00 116.00
C 71.09 119.44 74.31 122.55 76.00 126.00 Z"/>
</g>
<g fill="None" fill-opacity="0.0" stroke="#907575" stroke-opacity="1.00" stroke-width="0.3"><path d="
M 151.00 122.00 
C 147.33 123.83 141.07 124.63 137.00 126.00
C 136.49 128.17 132.18 125.85 133.00 129.00
C 136.45 128.92 142.53 129.39 143.00 125.00
C 146.91 127.21 151.59 127.12 156.00 128.00
C 157.45 121.79 163.25 117.52 164.00 111.00
C 160.67 111.00 157.33 111.00 154.00 111.00
C 154.54 115.26 156.18 119.84 151.00 122.00 Z"/>
</g>
<g fill="None" fill-opacity="0.0" stroke="#505057" stroke-opacity="1.00" stroke-width="0.3"><path d="
M 140.00 170.00 
C 130.87 150.86 123.68 127.83 110.00 112.00
C 121.04 130.61 129.09 151.49 140.00 170.00 Z"/>
</g>
<g fill="None" fill-opacity="0.0" stroke="#403D43" stroke-opacity="1.00" stroke-width="0.3"><path d="
M 76.00 126.00 
C 76.13 126.46 76.17 127.57 76.00 128.00
C 80.56 133.65 78.02 136.30 81.00 143.00
C 79.12 142.76 79.54 140.45 78.00 140.00
C 81.66 156.53 84.20 173.47 88.00 190.00
C 88.79 177.93 84.67 163.89 84.00 151.00 C 83.33 138.11 81.71 124.72 77.00 113.00
C 77.69 116.47 74.51 120.85 76.00 126.00 Z"/>
</g>
<g fill="None" fill-opacity="0.0" stroke="#423337" stroke-opacity="1.00" stroke-width="0.3"><path d="
M 151.00 120.00 
C 157.04 113.69 134.70 113.78 130.00 113.00
C 132.54 113.70 138.25 115.30 140.93 116.07 C 143.60 116.84 150.34 117.47 151.00 120.00 Z"/>
</g>
<g fill="None" fill-opacity="0.0" stroke="#344F6C" stroke-opacity="0.67" stroke-width="0.3"><path d="
M 0.00 120.00 
C 1.70 119.49 0.80 117.29 1.00 116.00
C 1.00 116.00 0.50 116.00 0.00 116.00
L 0.00 120.00 Z"/>
</g>
<g fill="None" fill-opacity="0.0" stroke="#979CB1" stroke-opacity="0.70" stroke-width="0.3"><path d="
M 256.00 139.00 
L 256.00 116.00
C 254.32 122.52 254.36 132.41 256.00 139.00 Z"/>
</g>
<g fill="None" fill-opacity="0.0" stroke="#7E7476" stroke-opacity="1.00" stroke-width="0.3"><path d="
M 25.00 130.00 
C 25.12 131.50 25.87 133.18 26.00 134.00
C 26.25 135.52 26.69 136.57 27.00 138.00
C 27.14 137.66 29.69 138.27 30.00 138.00
C 31.11 135.03 28.10 133.59 28.00 131.00
C 28.00 129.33 28.00 127.67 28.00 126.00
C 34.48 127.22 42.88 135.58 47.00 126.00
C 42.86 129.72 40.63 125.74 42.00 121.00
C 36.60 123.52 24.26 120.61 25.00 130.00 Z"/>
</g>
<g fill="None" fill-opacity="0.0" stroke="#7A7071" stroke-opacity="1.00" stroke-width="0.3"><path d="
M 76.00 135.00 
C 76.64 136.68 77.50 138.29 78.00 140.00
C 79.54 140.45 79.12 142.76 81.00 143.00
C 78.02 136.30 80.56 133.65 76.00 128.00
C 75.62 128.94 75.81 134.07 76.00 135.00 Z"/>
</g>
<g fill="None" fill-opacity="0.0" stroke="#353C4C" stroke-opacity="1.00" stroke-width="0.3"><path d="
M 19.00 163.00 
C 21.44 159.42 20.68 152.19 21.77 147.77 C 22.87 143.35 26.02 133.88 26.00 134.00
C 25.87 133.18 25.12 131.50 25.00 130.00
C 14.75 133.03 24.84 147.25 16.00 153.00
C 20.60 154.87 17.47 159.85 19.00 163.00 Z"/>
</g>
<g fill="None" fill-opacity="0.0" stroke="#937B7D" stroke-opacity="1.00" stroke-width="0.3"><path d="
M 154.00 131.00 
C 154.00 131.00 153.84 131.56 154.00 132.00
C 155.64 134.93 156.74 132.39 157.00 130.00
C 155.59 129.60 154.83 130.38 154.00 131.00 Z"/>
</g>
<g fill="None" fill-opacity="0.0" stroke="#463E40" stroke-opacity="1.00" stroke-width="0.3"><path d="
M 27.00 138.00 
C 27.17 138.81 26.34 143.83 30.00 143.00
C 28.97 147.54 27.15 151.92 28.00 157.00
C 28.22 157.30 28.88 157.74 29.00 158.00
C 28.38 149.09 31.97 143.32 33.00 135.00
C 31.73 133.72 28.43 132.75 28.00 131.00
C 28.10 133.59 31.11 135.03 30.00 138.00
C 29.69 138.27 27.14 137.66 27.00 138.00 Z"/>
</g>
<g fill="None" fill-opacity="0.0" stroke="#61595D" stroke-opacity="1.00" stroke-width="0.3"><path d="
M 19.00 163.00 
C 19.39 164.71 21.16 163.58 22.00 163.00
C 20.72 165.30 21.58 166.81 22.00 169.00
C 22.69 167.81 24.91 168.13 26.00 168.00
C 26.83 170.59 24.13 171.90 22.00 172.00
C 21.80 173.91 23.22 177.68 23.00 179.00
C 26.39 174.54 29.79 170.03 32.00 165.00
C 28.11 169.74 27.70 165.13 26.00 162.00
C 28.65 162.29 30.95 161.79 29.00 159.00
C 27.05 160.82 24.50 161.46 22.00 162.00
C 23.33 154.13 22.39 146.47 25.00 139.00
C 25.97 140.85 26.79 143.24 29.00 144.00
C 27.67 147.82 25.35 153.36 28.00 157.00
C 27.15 151.92 28.97 147.54 30.00 143.00
C 26.34 143.83 27.17 138.81 27.00 138.00
C 26.69 136.57 26.25 135.52 26.00 134.00
C 26.02 133.88 22.87 143.35 21.77 147.77 C 20.68 152.19 21.44 159.42 19.00 163.00 Z"/>
</g>
<g fill="None" fill-opacity="0.0" stroke="#8D7577" stroke-opacity="1.00" stroke-width="0.3"><path d="
M 156.00 135.00 
C 155.76 144.08 164.38 134.98 156.00 135.00 Z"/>
</g>
<g fill="None" fill-opacity="0.0" stroke="#344F6C" stroke-opacity="0.67" stroke-width="0.3"><path d="
M 0.00 140.00 
C 1.57 139.58 1.34 136.47 0.00 136.00
L 0.00 140.00 Z"/>
</g>
<g fill="None" fill-opacity="0.0" stroke="#988D89" stroke-opacity="1.00" stroke-width="0.3"><path d="
M 29.00 159.00 
C 29.00 159.00 29.00 158.50 29.00 158.00
C 28.88 157.74 28.22 157.30 28.00 157.00
C 25.35 153.36 27.67 147.82 29.00 144.00
C 26.79 143.24 25.97 140.85 25.00 139.00
C 22.39 146.47 23.33 154.13 22.00 162.00
C 24.50 161.46 27.05 160.82 29.00 159.00 Z"/>
</g>
<g fill="None" fill-opacity="0.0" stroke="#4E4C53" stroke-opacity="1.00" stroke-width="0.3"><path d="
M 137.00 179.00 
C 137.68 178.53 139.26 179.37 140.00 179.00
C 140.30 180.57 139.75 182.61 138.00 183.00
C 140.58 187.77 143.76 180.79 148.00 183.00
C 143.05 187.84 149.52 187.94 149.92 184.08 C 150.33 180.21 146.68 177.00 144.00 176.00
C 144.85 163.49 154.72 151.68 154.00 140.00
C 152.10 155.06 141.75 166.60 137.00 179.00 Z"/>
</g>
<g fill="None" fill-opacity="0.0" stroke="#34506C" stroke-opacity="0.62" stroke-width="0.3"><path d="
M 0.00 143.00 
C 2.47 144.94 2.21 141.35 0.00 141.00
L 0.00 143.00 Z"/>
</g>
<g fill="None" fill-opacity="0.0" stroke="#4D464D" stroke-opacity="1.00" stroke-width="0.3"><path d="
M 182.00 143.00 
C 184.77 142.08 185.90 145.19 188.00 146.00
C 189.21 147.19 184.67 147.02 187.00 150.00
C 184.32 150.57 184.96 146.64 183.00 146.00
C 182.88 152.97 190.86 150.97 190.00 145.00
C 186.97 145.63 184.48 140.06 182.00 143.00 Z"/>
</g>
<g fill="None" fill-opacity="0.0" stroke="#7B7075" stroke-opacity="1.00" stroke-width="0.3"><path d="
M 183.00 146.00 
C 184.96 146.64 184.32 150.57 187.00 150.00
C 184.67 147.02 189.21 147.19 188.00 146.00
C 185.90 145.19 184.77 142.08 182.00 143.00
C 182.67 143.94 182.69 144.98 183.00 146.00 Z"/>
</g>
<g fill="None" fill-opacity="0.0" stroke="#000000" stroke-opacity="0.00" stroke-width="0.3"><path d="
M 0.00 256.00 
L 112.00 256.00
C 112.00 255.50 112.00 255.00 112.00 255.00
C 99.47 254.97 87.99 250.19 77.00 246.00
C 75.44 245.40 74.31 244.76 73.00 244.00
C 49.56 230.44 31.66 216.20 17.00 193.00
C 8.26 179.16 3.37 162.67 0.00 147.00
L 0.00 256.00 Z"/>
</g>
<g fill="None" fill-opacity="0.0" stroke="#000000" stroke-opacity="0.00" stroke-width="0.3"><path d="
M 255.00 148.00 
C 255.34 153.09 253.20 158.27 252.00 163.00
C 251.73 164.08 251.30 164.26 251.00 165.00
C 250.57 166.08 250.38 167.79 250.00 169.00
C 248.38 174.17 246.51 179.10 244.00 184.00
C 241.51 188.86 238.68 193.53 236.00 198.00
C 235.31 199.14 234.67 200.06 234.00 201.00
C 232.04 203.75 230.06 206.56 228.00 209.00
C 227.09 210.08 225.87 211.05 225.00 212.00
C 223.23 213.94 221.75 216.12 220.00 218.00
C 218.97 219.11 218.12 220.05 217.00 221.00
C 215.54 222.23 213.52 223.53 212.00 225.00
C 210.95 226.01 210.14 227.09 209.00 228.00
C 197.97 236.82 185.88 242.70 173.00 248.00
C 168.49 249.86 164.11 251.92 159.00 253.00
C 153.63 254.13 148.68 255.00 143.00 255.00
C 143.22 255.13 143.00 256.00 143.00 256.00
L 256.00 256.00
L 256.00 147.00
C 256.00 147.00 255.25 146.75 255.00 147.00
C 255.00 147.00 254.97 147.50 255.00 148.00 Z"/>
</g>
<g fill="None" fill-opacity="0.0" stroke="#4C4A53" stroke-opacity="1.00" stroke-width="0.3"><path d="
M 71.00 150.00 
C 69.36 151.50 71.37 154.93 72.00 157.00
C 74.26 155.35 71.53 152.09 71.00 150.00 Z"/>
</g>
<g fill="None" fill-opacity="0.0" stroke="#403B46" stroke-opacity="1.00" stroke-width="0.3"><path d="
M 202.00 151.00 
C 201.79 150.97 201.11 150.26 201.00 150.00
C 196.21 149.91 191.80 154.52 191.00 159.00
C 195.40 159.31 199.73 157.32 203.00 155.00
C 199.42 155.71 201.31 153.06 199.00 152.00
C 199.78 151.26 201.19 151.41 202.00 151.00 Z"/>
</g>
<g fill="None" fill-opacity="0.0" stroke="#8D7170" stroke-opacity="1.00" stroke-width="0.3"><path d="
M 167.00 159.00 
C 166.83 157.76 169.15 159.57 169.00 162.00
C 171.99 162.79 171.08 164.97 175.00 165.00
C 177.52 161.70 173.52 158.53 174.00 155.00
C 171.91 153.98 169.77 153.68 168.00 152.00
C 170.02 154.97 167.88 156.45 167.00 159.00 Z"/>
</g>
<g fill="None" fill-opacity="0.0" stroke="#4F4955" stroke-opacity="0.99" stroke-width="0.3"><path d="
M 73.00 244.00 
C 74.31 244.76 75.44 245.40 77.00 246.00
C 80.05 246.57 79.62 242.63 82.00 242.00
C 75.45 231.48 71.63 219.31 75.00 207.00
C 79.78 217.42 78.31 229.64 83.00 240.00
C 85.62 238.66 86.20 237.93 88.00 241.00
C 82.72 222.23 72.61 203.61 73.00 184.00
C 67.69 185.55 68.80 176.35 67.00 172.00 C 65.20 167.66 66.83 159.56 63.00 156.00
C 63.50 164.83 65.52 173.03 67.66 181.32 C 69.81 189.61 60.34 197.49 63.00 205.00
C 64.39 198.81 67.84 192.90 69.00 187.00
C 73.35 198.45 63.89 210.01 68.00 221.00
C 69.18 214.26 70.56 207.06 73.00 201.00
C 73.24 206.36 72.35 216.25 69.78 221.78 C 67.21 227.30 69.57 238.50 74.00 239.00
C 75.19 240.11 72.69 243.40 73.00 244.00 Z"/>
</g>
<g fill="None" fill-opacity="0.0" stroke="#918687" stroke-opacity="1.00" stroke-width="0.3"><path d="
M 167.00 159.00 
C 166.55 160.30 166.62 160.94 166.00 162.00
C 151.15 187.43 155.70 216.04 158.00 245.00
C 158.15 245.61 159.27 247.58 160.00 248.00
C 159.36 219.81 151.65 188.94 169.00 165.00
C 169.00 165.00 169.00 164.50 169.00 164.00
C 169.00 163.50 168.97 162.50 169.00 162.00
C 169.15 159.57 166.83 157.76 167.00 159.00 Z"/>
</g>
<g fill="None" fill-opacity="0.0" stroke="#858A9E" stroke-opacity="0.96" stroke-width="0.3"><path d="
M 234.00 162.00 
C 226.63 163.85 218.62 172.61 214.00 178.00
C 218.58 180.57 212.71 191.25 218.10 192.90 C 223.50 194.54 231.00 192.49 234.00 199.00
C 234.49 198.49 235.52 198.40 236.00 198.00
C 238.68 193.53 241.51 188.86 244.00 184.00
C 239.42 187.44 231.26 180.82 228.00 188.00
C 221.28 185.64 217.10 182.86 220.00 175.00
C 224.37 171.08 235.38 174.69 231.00 165.00
C 238.30 163.43 243.84 167.05 250.00 169.00
C 250.38 167.79 250.57 166.08 251.00 165.00
C 251.01 164.83 249.86 163.72 251.00 163.00
C 245.42 163.50 240.35 161.29 234.00 162.00 Z"/>
</g>
<g fill="None" fill-opacity="0.0" stroke="#453F49" stroke-opacity="0.99" stroke-width="0.3"><path d="
M 169.00 165.00 
C 151.65 188.94 159.36 219.81 160.00 248.00
C 159.27 247.58 158.15 245.61 158.00 245.00
C 158.22 247.80 159.42 250.08 159.00 253.00
C 164.11 251.92 168.49 249.86 173.00 248.00
C 171.45 225.47 169.99 199.88 169.00 176.00
C 173.25 179.64 175.15 187.16 181.00 189.00
C 181.43 184.14 182.40 180.34 176.00 182.00
C 175.81 179.48 177.98 177.23 175.00 176.00
C 180.73 173.30 188.54 168.77 190.00 162.00
C 188.27 167.72 170.05 175.24 181.00 168.00
C 176.40 167.29 172.44 169.15 168.00 169.00
C 168.31 167.80 168.44 166.04 169.00 165.00 Z"/>
</g>
<g fill="None" fill-opacity="0.0" stroke="#707588" stroke-opacity="0.96" stroke-width="0.3"><path d="
M 215.00 169.00 
C 212.11 177.12 211.97 184.31 215.00 191.00
C 215.50 194.53 209.32 191.69 211.00 196.00
C 216.18 194.98 214.71 198.73 213.00 201.00
C 218.51 204.42 218.26 211.31 219.00 217.00
C 219.03 217.21 220.00 217.66 220.00 218.00
C 221.75 216.12 223.23 213.94 225.00 212.00
C 225.61 210.88 227.31 209.53 228.00 209.00
C 230.06 206.56 232.04 203.75 234.00 201.00
C 234.05 200.80 233.06 199.98 234.00 199.00
C 231.00 192.49 223.50 194.54 218.10 192.90 C 212.71 191.25 218.58 180.57 214.00 178.00
C 218.62 172.61 226.63 163.85 234.00 162.00
C 230.51 163.06 226.34 162.36 226.00 167.00
C 222.77 167.36 217.49 166.36 215.00 169.00 Z"/>
</g>
<g fill="None" fill-opacity="0.0" stroke="#707585" stroke-opacity="0.26" stroke-width="0.3"><path d="
M 251.00 165.00 
C 251.30 164.26 251.73 164.08 252.00 163.00
C 252.00 163.00 251.50 162.96 251.00 163.00
C 249.86 163.72 251.01 164.83 251.00 165.00 Z"/>
</g>
<g fill="None" fill-opacity="0.0" stroke="#9B9FB3" stroke-opacity="0.97" stroke-width="0.3"><path d="
M 244.00 184.00 
C 246.51 179.10 248.38 174.17 250.00 169.00
C 243.84 167.05 238.30 163.43 231.00 165.00
C 235.38 174.69 224.37 171.08 220.00 175.00
C 217.10 182.86 221.28 185.64 228.00 188.00
C 231.26 180.82 239.42 187.44 244.00 184.00 Z"/>
</g>
<g fill="None" fill-opacity="0.0" stroke="#998F93" stroke-opacity="1.00" stroke-width="0.3"><path d="
M 22.00 169.00 
C 22.16 169.83 22.09 171.16 22.00 172.00
C 24.13 171.90 26.83 170.59 26.00 168.00
C 24.91 168.13 22.69 167.81 22.00 169.00 Z"/>
</g>
<g fill="None" fill-opacity="0.0" stroke="#484752" stroke-opacity="1.00" stroke-width="0.3"><path d="
M 79.00 178.00 
C 79.25 174.30 78.10 168.68 74.00 168.00
C 76.75 170.80 76.96 175.13 79.00 178.00 Z"/>
</g>
<g fill="None" fill-opacity="0.0" stroke="#6F6E7A" stroke-opacity="1.00" stroke-width="0.3"><path d="
M 138.00 183.00 
C 139.75 182.61 140.30 180.57 140.00 179.00
C 139.26 179.37 137.68 178.53 137.00 179.00
C 135.85 182.00 136.46 181.57 138.00 183.00 Z"/>
</g>
<g fill="None" fill-opacity="0.0" stroke="#4F4A52" stroke-opacity="1.00" stroke-width="0.3"><path d="
M 79.00 192.00 
C 80.55 188.30 76.68 180.86 74.00 187.00
C 78.43 184.56 76.08 190.55 79.00 192.00 Z"/>
</g>
<g fill="None" fill-opacity="0.0" stroke="#9B9EAE" stroke-opacity="0.21" stroke-width="0.3"><path d="
M 234.00 199.00 
C 233.06 199.98 234.05 200.80 234.00 201.00
C 234.67 200.06 235.31 199.14 236.00 198.00
C 235.52 198.40 234.49 198.49 234.00 199.00 Z"/>
</g>
<g fill="None" fill-opacity="0.0" stroke="#757E90" stroke-opacity="0.44" stroke-width="0.3"><path d="
M 225.00 212.00 
C 225.87 211.05 227.09 210.08 228.00 209.00
C 227.31 209.53 225.61 210.88 225.00 212.00 Z"/>
</g>
<g fill="None" fill-opacity="0.0" stroke="#26283B" stroke-opacity="0.31" stroke-width="0.3"><path d="
M 217.00 221.00 
C 218.12 220.05 218.97 219.11 220.00 218.00
C 220.00 217.66 219.03 217.21 219.00 217.00
C 217.76 217.67 216.88 221.15 217.00 221.00 Z"/>
</g>
<g fill="None" fill-opacity="0.0" stroke="#21212A" stroke-opacity="0.44" stroke-width="0.3"><path d="
M 209.00 228.00 
C 210.14 227.09 210.95 226.01 212.00 225.00
C 211.23 225.45 209.46 227.47 209.00 228.00 Z"/>
</g>
<g fill="None" fill-opacity="0.0" stroke="#4F4F54" stroke-opacity="1.00" stroke-width="0.3"><path d="
M 91.00 229.00 
C 90.45 228.45 88.30 229.60 89.29 230.63 C 90.29 231.67 91.73 229.73 91.00 229.00 Z"/>
</g>
<g fill="None" fill-opacity="0.0" stroke="#504D56" stroke-opacity="0.97" stroke-width="0.3"><path d="
M 92.00 251.00 
C 92.15 247.57 90.38 244.10 88.00 242.00
C 88.74 245.17 89.73 248.69 92.00 251.00 Z"/>
</g>
<g fill="None" fill-opacity="0.0" stroke="#191B21" stroke-opacity="0.32" stroke-width="0.3"><path d="
M 112.00 256.00 
L 116.00 256.00
C 116.00 255.50 116.00 255.00 116.00 255.00
C 114.67 254.95 113.33 255.00 112.00 255.00
C 112.00 255.00 112.00 255.50 112.00 256.00 Z"/>
</g>
<g fill="None" fill-opacity="0.0" stroke="#1B1C24" stroke-opacity="0.67" stroke-width="0.3"><path d="
M 116.00 256.00 
L 120.00 256.00
C 119.49 254.40 117.28 255.05 116.00 255.00
C 116.00 255.00 116.00 255.50 116.00 256.00 Z"/>
</g>
<g fill="None" fill-opacity="0.0" stroke="#1C1C22" stroke-opacity="0.71" stroke-width="0.3"><path d="
M 136.00 256.00 
L 139.00 256.00
C 139.00 255.50 139.00 255.00 139.00 255.00
C 138.04 255.07 136.27 254.72 136.00 256.00 Z"/>
</g>
<g fill="None" fill-opacity="0.0" stroke="#1C1D23" stroke-opacity="0.41" stroke-width="0.3"><path d="
M 139.00 256.00 
L 143.00 256.00
C 143.00 256.00 143.22 255.13 143.00 255.00
C 141.68 255.00 140.32 254.91 139.00 255.00
C 139.00 255.00 139.00 255.50 139.00 256.00 Z"/>
</g>
<g fill="#000000" fill-opacity="0.00" stroke="None">
<path d="
M 0.00 109.00 
C 0.50 109.00 1.00 109.00 1.00 109.00
C 0.22 87.94 14.92 62.50 28.00 47.00
C 28.91 45.92 30.13 44.95 31.00 44.00
C 35.26 39.34 39.38 35.22 44.00 31.00
C 45.01 30.08 45.95 28.88 47.00 28.00
C 51.04 24.59 55.57 21.95 60.00 19.00
C 66.94 14.39 74.12 10.91 82.00 8.00
C 85.43 6.73 89.15 4.99 93.00 4.00
C 94.94 3.50 97.02 3.50 99.00 3.00
C 102.24 2.18 105.01 0.85 109.00 1.00
C 108.98 1.00 109.00 0.00 109.00 0.00
L 0.00 0.00
L 0.00 109.00 Z"/>
</g>
<g fill="#38586E" fill-opacity="0.24" stroke="None">
<path d="
M 109.00 1.00 
C 110.54 0.93 112.48 2.70 113.00 0.00
L 109.00 0.00
C 109.00 0.00 108.98 1.00 109.00 1.00 Z"/>
</g>
<g fill="#354763" fill-opacity="0.80" stroke="None">
<path d="
M 109.00 1.00 
C 105.01 0.85 102.24 2.18 99.00 3.00
C 101.42 3.36 104.82 7.53 107.74 6.60 C 110.67 5.67 112.56 2.71 115.00 1.00
C 115.23 0.84 115.00 0.00 115.00 0.00
L 113.00 0.00
C 112.48 2.70 110.54 0.93 109.00 1.00 Z"/>
</g>
<g fill="#394E6A" fill-opacity="0.98" stroke="None">
<path d="
M 115.00 1.00 
C 124.71 1.49 123.29 12.44 131.00 15.00
C 127.46 16.16 129.17 17.06 130.00 20.00
C 127.58 20.21 124.21 19.08 125.00 16.00
C 121.71 15.89 119.94 24.02 116.00 18.00
C 113.90 18.65 112.55 20.40 110.00 21.00
C 111.36 26.46 106.69 29.75 105.00 34.00
C 98.55 45.95 97.97 54.57 99.00 68.00
C 93.51 64.05 88.60 59.33 81.78 60.78 C 74.96 62.22 72.22 51.88 68.00 49.00
C 72.96 49.23 76.88 49.20 81.00 51.00
C 82.72 48.75 84.71 45.45 88.00 46.00
C 89.02 45.67 91.16 45.43 92.00 45.00
C 93.10 44.43 94.13 41.84 95.00 41.00
C 87.87 39.24 79.74 39.57 73.00 39.00
C 80.44 33.75 70.30 24.15 80.00 21.00
C 75.20 20.91 71.13 18.93 70.00 25.00
C 65.97 24.23 61.12 23.36 60.00 19.00
C 55.57 21.95 51.04 24.59 47.00 28.00
C 46.38 28.80 45.04 30.44 44.00 31.00
C 39.38 35.22 35.26 39.34 31.00 44.00
C 30.39 45.12 28.69 46.47 28.00 47.00
C 14.92 62.50 0.22 87.94 1.00 109.00
C 3.06 111.00 1.37 113.57 1.00 116.00
C 0.80 117.29 1.70 119.49 0.00 120.00
L 0.00 136.00
C 1.34 136.47 1.57 139.58 0.00 140.00
L 0.00 141.00
C 2.21 141.35 2.47 144.94 0.00 143.00
L 0.00 147.00
C 3.37 162.67 8.26 179.16 17.00 193.00
C 16.28 187.90 19.84 182.70 23.00 179.00
C 23.22 177.68 21.80 173.91 22.00 172.00
C 22.09 171.16 22.16 169.83 22.00 169.00
C 21.58 166.81 20.72 165.30 22.00 163.00
C 21.16 163.58 19.39 164.71 19.00 163.00
C 17.47 159.85 20.60 154.87 16.00 153.00
C 24.84 147.25 14.75 133.03 25.00 130.00
C 24.26 120.61 36.60 123.52 42.00 121.00
C 43.85 120.14 44.87 115.82 48.01 117.01 C 51.15 118.20 53.78 115.28 55.00 113.00
C 56.84 109.55 69.88 96.29 74.00 107.00
C 79.43 110.19 88.12 107.21 93.68 110.32 C 99.24 113.44 105.53 106.74 110.08 105.08 C 114.62 103.41 115.42 93.43 115.00 89.00
C 112.65 85.97 112.14 81.02 111.00 77.00
C 110.42 74.94 110.77 71.27 110.00 69.00
C 107.84 67.74 107.35 65.32 105.00 65.00
C 107.56 67.73 103.83 68.03 102.00 69.00
C 100.36 64.26 101.45 58.81 100.00 54.00
C 101.71 52.81 104.12 51.35 104.00 49.00
C 97.87 53.34 100.90 44.41 102.99 39.99 C 105.08 35.57 110.79 30.72 116.00 31.00
C 114.77 28.63 111.14 27.01 111.00 24.00
C 115.57 23.86 119.55 22.38 124.00 24.00
C 121.59 19.67 130.37 20.43 134.01 20.01 C 137.65 19.58 143.99 22.72 148.00 19.00
C 144.91 18.76 141.81 18.83 140.00 16.00
C 137.72 17.24 135.39 18.76 132.00 18.00
C 131.41 11.88 138.18 13.93 142.00 13.00 C 145.83 12.08 153.73 10.47 154.00 15.00
C 157.78 12.09 165.58 9.85 169.00 14.00
C 169.14 14.46 169.00 15.00 169.00 15.00
C 172.08 17.57 180.98 13.30 183.00 12.00
C 171.86 6.27 159.11 2.49 147.00 0.00
L 146.00 0.00
C 147.55 4.07 137.92 0.71 136.00 0.00
L 115.00 0.00
C 115.00 0.00 115.23 0.84 115.00 1.00
M 84.00 73.00 
C 81.07 77.85 79.15 84.12 75.00 89.00
C 71.16 87.41 70.84 82.05 66.00 86.00
C 69.60 82.61 62.42 76.96 67.26 73.26 C 72.09 69.55 78.55 72.57 84.00 73.00 Z"/>
</g>
<g fill="#32435F" fill-opacity="0.54" stroke="None">
<path d="
M 146.00 0.00 
L 136.00 0.00
C 137.92 0.71 147.55 4.07 146.00 0.00 Z"/>
</g>
<g fill="#000000" fill-opacity="0.00" stroke="None">
<path d="
M 183.00 12.00 
C 183.40 12.21 184.65 12.84 185.00 13.00
C 193.67 17.11 201.63 21.78 209.00 28.00
C 210.12 28.94 211.03 30.06 212.00 31.00
C 212.62 31.60 213.43 32.45 214.00 33.00
C 214.50 33.04 215.00 33.00 215.00 33.00
C 218.08 34.51 221.03 38.39 223.00 41.00
C 223.67 41.89 224.29 43.24 225.00 44.00
C 225.95 45.02 227.11 45.94 228.00 47.00
C 229.73 49.05 231.25 51.99 233.00 54.00
C 233.65 54.74 234.39 55.17 235.00 56.00
C 237.53 59.47 239.40 63.16 241.00 67.00
C 241.11 67.26 241.79 68.59 242.00 69.00
C 244.20 73.27 246.26 77.36 248.00 82.00
C 248.29 82.77 248.67 83.95 249.00 85.00
C 250.82 90.76 252.48 96.81 254.00 103.00
C 254.25 104.00 254.76 105.56 255.00 107.00
C 255.12 107.69 254.82 108.95 256.00 109.00
L 256.00 0.00
L 147.00 0.00
C 159.11 2.49 171.86 6.27 183.00 12.00 Z"/>
</g>
<g fill="#576582" fill-opacity="0.98" stroke="None">
<path d="
M 99.00 3.00 
C 97.02 3.50 94.94 3.50 93.00 4.00
C 90.55 5.63 88.97 13.39 84.00 12.00
C 84.30 10.43 83.75 8.39 82.00 8.00
C 74.12 10.91 66.94 14.39 60.00 19.00
C 61.12 23.36 65.97 24.23 70.00 25.00
C 71.13 18.93 75.20 20.91 80.00 21.00
C 70.30 24.15 80.44 33.75 73.00 39.00
C 79.74 39.57 87.87 39.24 95.00 41.00
C 94.13 41.84 93.10 44.43 92.00 45.00
C 93.00 45.05 94.00 44.96 95.00 45.00
C 94.40 47.79 92.08 49.93 92.00 53.00
C 87.62 52.67 81.25 53.46 80.00 58.00
C 75.32 58.84 75.25 53.47 73.00 51.00
C 76.36 50.43 78.09 50.57 81.00 52.00
C 82.30 48.77 85.99 48.08 88.00 46.00
C 84.71 45.45 82.72 48.75 81.00 51.00
C 76.88 49.20 72.96 49.23 68.00 49.00
C 72.22 51.88 74.96 62.22 81.78 60.78 C 88.60 59.33 93.51 64.05 99.00 68.00
C 97.97 54.57 98.55 45.95 105.00 34.00
C 103.99 35.06 102.34 34.98 101.00 35.00
C 102.99 37.92 100.37 41.76 97.00 42.00
C 93.46 34.36 89.94 39.69 83.78 37.22 C 77.62 34.75 86.66 29.44 91.00 29.00
C 90.48 26.73 87.60 26.02 86.00 24.00
C 88.45 19.79 95.08 16.73 96.00 12.00
C 103.72 12.85 120.07 6.89 120.00 19.00
C 118.44 19.41 117.31 18.54 116.00 18.00
C 119.94 24.02 121.71 15.89 125.00 16.00
C 124.21 19.08 127.58 20.21 130.00 20.00
C 129.17 17.06 127.46 16.16 131.00 15.00
C 123.29 12.44 124.71 1.49 115.00 1.00
C 112.56 2.71 110.67 5.67 107.74 6.60 C 104.82 7.53 101.42 3.36 99.00 3.00 Z"/>
</g>
<g fill="#384663" fill-opacity="0.75" stroke="None">
<path d="
M 82.00 8.00 
C 83.75 8.39 84.30 10.43 84.00 12.00
C 88.97 13.39 90.55 5.63 93.00 4.00
C 89.15 4.99 85.43 6.73 82.00 8.00 Z"/>
</g>
<g fill="#7C849D" fill-opacity="1.00" stroke="None">
<path d="
M 105.00 34.00 
C 106.69 29.75 111.36 26.46 110.00 21.00
C 112.55 20.40 113.90 18.65 116.00 18.00
C 117.31 18.54 118.44 19.41 120.00 19.00
C 120.07 6.89 103.72 12.85 96.00 12.00
C 95.08 16.73 88.45 19.79 86.00 24.00
C 87.60 26.02 90.48 26.73 91.00 29.00
C 86.66 29.44 77.62 34.75 83.78 37.22 C 89.94 39.69 93.46 34.36 97.00 42.00
C 100.37 41.76 102.99 37.92 101.00 35.00
C 102.34 34.98 103.99 35.06 105.00 34.00 Z"/>
</g>
<g fill="#565F79" fill-opacity="0.99" stroke="None">
<path d="
M 148.00 19.00 
C 153.72 19.44 161.30 18.71 165.23 23.77 C 169.16 28.83 170.96 31.55 175.00 36.00
C 172.95 31.72 171.30 26.71 167.00 24.00
C 169.69 15.20 179.23 17.44 185.00 13.00
C 184.65 12.84 183.40 12.21 183.00 12.00
C 180.98 13.30 172.08 17.57 169.00 15.00
C 173.89 22.89 156.53 21.29 155.00 16.00
C 158.63 12.56 164.54 11.96 169.00 14.00
C 165.58 9.85 157.78 12.09 154.00 15.00
C 153.73 10.47 145.83 12.08 142.00 13.00 C 138.18 13.93 131.41 11.88 132.00 18.00
C 135.39 18.76 137.72 17.24 140.00 16.00
C 141.81 18.83 144.91 18.76 148.00 19.00 Z"/>
</g>
<g fill="#777D96" fill-opacity="1.00" stroke="None">
<path d="
M 169.00 15.00 
C 169.00 15.00 169.14 14.46 169.00 14.00
C 164.54 11.96 158.63 12.56 155.00 16.00
C 156.53 21.29 173.89 22.89 169.00 15.00 Z"/>
</g>
<g fill="#7C8095" fill-opacity="0.96" stroke="None">
<path d="
M 175.00 36.00 
C 177.83 41.91 183.45 45.58 186.00 52.00
C 187.60 56.03 189.41 68.74 198.03 65.97 C 206.64 63.21 213.18 69.14 221.01 66.01 C 228.84 62.87 233.78 66.13 241.00 69.00
C 239.91 67.59 241.06 67.66 241.00 67.00
C 239.40 63.16 237.53 59.47 235.00 56.00
C 233.69 54.75 233.38 54.72 233.00 54.00
C 231.25 51.99 229.73 49.05 228.00 47.00
C 227.21 46.39 225.55 45.01 225.00 44.00
C 224.29 43.24 223.67 41.89 223.00 41.00
C 220.82 38.62 217.61 35.83 215.00 34.00
C 217.95 37.86 219.22 40.79 214.00 43.00
C 215.71 46.60 220.06 46.22 223.00 48.00
C 221.13 59.28 210.65 59.28 201.92 60.92 C 193.20 62.57 187.09 50.46 188.00 43.00
C 192.32 45.17 193.00 39.37 198.00 41.00
C 196.84 35.42 202.75 35.83 205.00 33.00
C 207.67 33.50 207.94 36.69 211.00 36.00
C 210.43 33.05 213.23 34.03 214.00 33.00
C 213.43 32.45 212.62 31.60 212.00 31.00
C 210.79 30.38 209.57 28.73 209.00 28.00
C 201.63 21.78 193.67 17.11 185.00 13.00
C 179.23 17.44 169.69 15.20 167.00 24.00
C 171.30 26.71 172.95 31.72 175.00 36.00 Z"/>
</g>
<g fill="#23232B" fill-opacity="1.00" stroke="None">
<path d="
M 110.00 69.00 
C 111.35 69.79 116.07 71.23 117.00 75.00
C 116.44 72.10 117.39 67.94 121.00 68.00
C 120.21 73.44 128.88 76.69 128.00 80.00
C 126.13 80.96 122.78 79.43 121.00 79.00
C 119.57 78.65 118.43 77.39 117.00 77.00
C 115.97 80.26 118.44 82.25 119.00 85.00
C 119.76 87.77 120.32 90.21 119.00 93.00
C 117.58 91.96 117.95 88.36 115.00 89.00
C 115.42 93.43 114.62 103.41 110.08 105.08 C 105.53 106.74 99.24 113.44 93.68 110.32 C 88.12 107.21 79.43 110.19 74.00 107.00
C 74.38 107.98 74.37 109.03 75.00 110.00
C 75.83 111.28 76.35 111.39 77.00 113.00
C 81.71 124.72 83.33 138.11 84.00 151.00 C 84.67 163.89 88.79 177.93 88.00 190.00
C 84.20 173.47 81.66 156.53 78.00 140.00
C 77.50 138.29 76.64 136.68 76.00 135.00
C 73.55 128.55 64.94 110.25 55.00 113.00
C 53.78 115.28 51.15 118.20 48.01 117.01 C 44.87 115.82 43.85 120.14 42.00 121.00
C 40.63 125.74 42.86 129.72 47.00 126.00
C 42.88 135.58 34.48 127.22 28.00 126.00
C 28.00 127.67 28.00 129.33 28.00 131.00
C 28.43 132.75 31.73 133.72 33.00 135.00
C 31.97 143.32 28.38 149.09 29.00 158.00
C 29.00 158.50 29.00 159.00 29.00 159.00
C 30.95 161.79 28.65 162.29 26.00 162.00
C 27.70 165.13 28.11 169.74 32.00 165.00
C 29.79 170.03 26.39 174.54 23.00 179.00
C 19.84 182.70 16.28 187.90 17.00 193.00
C 31.66 216.20 49.56 230.44 73.00 244.00
C 72.69 243.40 75.19 240.11 74.00 239.00
C 69.57 238.50 67.21 227.30 69.78 221.78 C 72.35 216.25 73.24 206.36 73.00 201.00
C 70.56 207.06 69.18 214.26 68.00 221.00
C 63.89 210.01 73.35 198.45 69.00 187.00
C 67.84 192.90 64.39 198.81 63.00 205.00
C 60.34 197.49 69.81 189.61 67.66 181.32 C 65.52 173.03 63.50 164.83 63.00 156.00
C 66.83 159.56 65.20 167.66 67.00 172.00 C 68.80 176.35 67.69 185.55 73.00 184.00
C 72.61 203.61 82.72 222.23 88.00 241.00
C 86.20 237.93 85.62 238.66 83.00 240.00
C 78.31 229.64 79.78 217.42 75.00 207.00
C 71.63 219.31 75.45 231.48 82.00 242.00
C 79.62 242.63 80.05 246.57 77.00 246.00
C 87.99 250.19 99.47 254.97 112.00 255.00
C 113.33 255.00 114.67 254.95 116.00 255.00
C 117.28 255.05 119.49 254.40 120.00 256.00
L 136.00 256.00
C 136.27 254.72 138.04 255.07 139.00 255.00
C 140.32 254.91 141.68 255.00 143.00 255.00
C 148.68 255.00 153.63 254.13 159.00 253.00
C 159.42 250.08 158.22 247.80 158.00 245.00
C 155.70 216.04 151.15 187.43 166.00 162.00
C 168.75 155.56 166.80 151.82 161.75 147.25 C 156.70 142.68 156.03 137.72 154.00 132.00
C 153.84 131.56 154.00 131.00 154.00 131.00
C 150.63 126.20 144.88 130.24 139.99 129.99 C 135.10 129.74 128.30 128.94 137.00 126.00
C 141.07 124.63 147.33 123.83 151.00 122.00
C 151.20 121.90 150.75 120.26 151.00 120.00
C 150.34 117.47 143.60 116.84 140.93 116.07 C 138.25 115.30 132.54 113.70 130.00 113.00
C 128.20 112.50 125.60 113.67 125.00 111.00
C 124.78 110.05 125.17 108.96 125.00 108.00
C 127.67 108.00 130.33 108.00 133.00 108.00
C 140.56 108.00 147.97 110.17 154.00 110.00
C 148.43 108.87 136.38 104.93 132.00 102.00
C 130.23 100.82 127.65 100.69 130.00 98.00
C 130.75 97.15 130.76 97.18 132.00 97.00
C 135.03 96.55 137.24 97.77 140.00 98.00
C 142.16 98.18 144.93 97.41 147.00 98.00
C 152.11 98.43 155.21 101.63 160.00 103.00
C 162.23 98.66 160.62 93.45 160.00 89.00
C 159.61 86.56 157.16 72.77 162.00 76.00
C 165.77 78.51 161.83 88.37 165.33 93.67 C 168.83 98.97 167.69 110.07 167.00 116.00
C 162.81 117.21 156.43 130.51 166.00 129.00
C 165.95 133.84 169.80 141.89 164.00 144.00
C 169.14 144.45 172.89 149.03 178.00 147.00
C 180.09 151.05 177.42 157.71 183.00 159.00
C 182.39 165.53 173.65 168.47 169.00 164.00
C 169.00 164.50 169.00 165.00 169.00 165.00
C 168.44 166.04 168.31 167.80 168.00 169.00
C 172.44 169.15 176.40 167.29 181.00 168.00
C 170.05 175.24 188.27 167.72 190.00 162.00
C 188.54 168.77 180.73 173.30 175.00 176.00
C 177.98 177.23 175.81 179.48 176.00 182.00
C 182.40 180.34 181.43 184.14 181.00 189.00
C 175.15 187.16 173.25 179.64 169.00 176.00
C 169.99 199.88 171.45 225.47 173.00 248.00
C 185.88 242.70 197.97 236.82 209.00 228.00
C 209.46 227.47 211.23 225.45 212.00 225.00
C 213.52 223.53 215.54 222.23 217.00 221.00
C 216.88 221.15 217.76 217.67 219.00 217.00
C 218.26 211.31 218.51 204.42 213.00 201.00
C 214.71 198.73 216.18 194.98 211.00 196.00
C 209.32 191.69 215.50 194.53 215.00 191.00
C 211.97 184.31 212.11 177.12 215.00 169.00
C 218.14 161.00 210.92 152.35 202.00 151.00
C 201.19 151.41 199.78 151.26 199.00 152.00
C 201.31 153.06 199.42 155.71 203.00 155.00
C 199.73 157.32 195.40 159.31 191.00 159.00
C 191.80 154.52 196.21 149.91 201.00 150.00
C 197.70 142.10 188.57 131.60 179.00 138.00
C 172.13 118.45 164.93 96.71 171.00 76.00
C 178.35 81.15 179.76 68.04 185.00 75.00
C 185.51 70.73 184.93 67.30 186.00 63.00
C 186.06 60.73 186.60 54.90 186.00 52.00
C 183.45 45.58 177.83 41.91 175.00 36.00
C 170.96 31.55 169.16 28.83 165.23 23.77 C 161.30 18.71 153.72 19.44 148.00 19.00
C 143.99 22.72 137.65 19.58 134.01 20.01 C 130.37 20.43 121.59 19.67 124.00 24.00
C 119.55 22.38 115.57 23.86 111.00 24.00
C 111.14 27.01 114.77 28.63 116.00 31.00
C 110.79 30.72 105.08 35.57 102.99 39.99 C 100.90 44.41 97.87 53.34 104.00 49.00
C 104.12 51.35 101.71 52.81 100.00 54.00
C 101.45 58.81 100.36 64.26 102.00 69.00
C 103.83 68.03 107.56 67.73 105.00 65.00
C 107.35 65.32 107.84 67.74 110.00 69.00
M 176.00 69.00 
C 175.19 75.49 168.80 68.40 176.00 69.00
M 140.00 170.00 
C 129.09 151.49 121.04 130.61 110.00 112.00
C 123.68 127.83 130.87 150.86 140.00 170.00
M 138.00 183.00 
C 136.46 181.57 135.85 182.00 137.00 179.00
C 141.75 166.60 152.10 155.06 154.00 140.00
C 154.72 151.68 144.85 163.49 144.00 176.00
C 146.68 177.00 150.33 180.21 149.92 184.08 C 149.52 187.94 143.05 187.84 148.00 183.00
C 143.76 180.79 140.58 187.77 138.00 183.00
M 183.00 146.00 
C 182.69 144.98 182.67 143.94 182.00 143.00
C 184.48 140.06 186.97 145.63 190.00 145.00
C 190.86 150.97 182.88 152.97 183.00 146.00
M 71.00 150.00 
C 71.53 152.09 74.26 155.35 72.00 157.00
C 71.37 154.93 69.36 151.50 71.00 150.00
M 79.00 178.00 
C 76.96 175.13 76.75 170.80 74.00 168.00
C 78.10 168.68 79.25 174.30 79.00 178.00
M 79.00 192.00 
C 76.08 190.55 78.43 184.56 74.00 187.00
C 76.68 180.86 80.55 188.30 79.00 192.00
M 91.00 229.00 
C 91.73 229.73 90.29 231.67 89.29 230.63 C 88.30 229.60 90.45 228.45 91.00 229.00
M 92.00 251.00 
C 89.73 248.69 88.74 245.17 88.00 242.00
C 90.38 244.10 92.15 247.57 92.00 251.00 Z"/>
</g>
<g fill="#2E4160" fill-opacity="0.44" stroke="None">
<path d="
M 44.00 31.00 
C 45.04 30.44 46.38 28.80 47.00 28.00
C 45.95 28.88 45.01 30.08 44.00 31.00 Z"/>
</g>
<g fill="#6D758C" fill-opacity="0.44" stroke="None">
<path d="
M 212.00 31.00 
C 211.03 30.06 210.12 28.94 209.00 28.00
C 209.57 28.73 210.79 30.38 212.00 31.00 Z"/>
</g>
<g fill="#9599AD" fill-opacity="1.00" stroke="None">
<path d="
M 215.00 34.00 
C 214.76 33.68 215.00 33.00 215.00 33.00
C 215.00 33.00 214.50 33.04 214.00 33.00
C 213.23 34.03 210.43 33.05 211.00 36.00
C 207.94 36.69 207.67 33.50 205.00 33.00
C 202.75 35.83 196.84 35.42 198.00 41.00
C 193.00 39.37 192.32 45.17 188.00 43.00
C 187.09 50.46 193.20 62.57 201.92 60.92 C 210.65 59.28 221.13 59.28 223.00 48.00
C 220.06 46.22 215.71 46.60 214.00 43.00
C 219.22 40.79 217.95 37.86 215.00 34.00 Z"/>
</g>
<g fill="#888899" fill-opacity="0.02" stroke="None">
<path d="
M 215.00 34.00 
C 217.61 35.83 220.82 38.62 223.00 41.00
C 221.03 38.39 218.08 34.51 215.00 33.00
C 215.00 33.00 214.76 33.68 215.00 34.00 Z"/>
</g>
<g fill="#2E425E" fill-opacity="0.44" stroke="None">
<path d="
M 28.00 47.00 
C 28.69 46.47 30.39 45.12 31.00 44.00
C 30.13 44.95 28.91 45.92 28.00 47.00 Z"/>
</g>
<g fill="#888AA1" fill-opacity="0.44" stroke="None">
<path d="
M 228.00 47.00 
C 227.11 45.94 225.95 45.02 225.00 44.00
C 225.55 45.01 227.21 46.39 228.00 47.00 Z"/>
</g>
<g fill="#707D9B" fill-opacity="1.00" stroke="None">
<path d="
M 88.00 46.00 
C 85.99 48.08 82.30 48.77 81.00 52.00
C 78.09 50.57 76.36 50.43 73.00 51.00
C 75.25 53.47 75.32 58.84 80.00 58.00
C 81.25 53.46 87.62 52.67 92.00 53.00
C 92.08 49.93 94.40 47.79 95.00 45.00
C 94.00 44.96 93.00 45.05 92.00 45.00
C 91.16 45.43 89.02 45.67 88.00 46.00 Z"/>
</g>
<g fill="#616B85" fill-opacity="0.98" stroke="None">
<path d="
M 186.00 63.00 
C 187.40 66.28 189.71 65.79 187.00 70.00
C 192.34 68.05 196.00 74.11 201.67 70.67 C 207.35 67.23 210.24 76.74 216.00 73.00
C 216.87 74.78 218.69 76.77 219.00 79.00
C 222.29 74.97 229.06 77.27 227.00 83.00
C 234.03 80.75 242.00 79.21 248.00 82.00
C 246.26 77.36 244.20 73.27 242.00 69.00
C 241.76 70.67 241.23 69.09 241.00 69.00
C 233.78 66.13 228.84 62.87 221.01 66.01 C 213.18 69.14 206.64 63.21 198.03 65.97 C 189.41 68.74 187.60 56.03 186.00 52.00
C 186.60 54.90 186.06 60.73 186.00 63.00 Z"/>
</g>
<g fill="#A1A4B5" fill-opacity="0.32" stroke="None">
<path d="
M 235.00 56.00 
C 234.39 55.17 233.65 54.74 233.00 54.00
C 233.38 54.72 233.69 54.75 235.00 56.00 Z"/>
</g>
<g fill="#3F5470" fill-opacity="1.00" stroke="None">
<path d="
M 201.00 150.00 
C 201.11 150.26 201.79 150.97 202.00 151.00
C 210.92 152.35 218.14 161.00 215.00 169.00
C 217.49 166.36 222.77 167.36 226.00 167.00
C 226.34 162.36 230.51 163.06 234.00 162.00
C 240.35 161.29 245.42 163.50 251.00 163.00
C 251.50 162.96 252.00 163.00 252.00 163.00
C 253.20 158.27 255.34 153.09 255.00 148.00
C 251.59 147.57 249.04 147.88 248.00 151.00
C 245.18 147.45 241.31 146.31 237.00 148.00
C 234.17 142.66 224.53 143.61 224.00 137.00
C 216.23 136.62 215.52 132.01 207.90 135.90 C 200.29 139.80 202.79 130.24 206.75 126.75 C 210.72 123.26 207.47 112.73 217.00 115.00
C 219.73 108.28 213.19 106.57 213.00 100.00
C 219.13 101.27 227.68 96.05 233.67 98.33 C 239.67 100.61 246.15 104.28 253.00 105.00
C 247.73 104.06 235.14 98.48 235.00 94.00
C 228.03 97.94 221.23 95.76 214.00 93.00
C 223.75 84.87 236.40 89.40 249.00 85.00
C 248.67 83.95 248.29 82.77 248.00 82.00
C 242.00 79.21 234.03 80.75 227.00 83.00
C 229.06 77.27 222.29 74.97 219.00 79.00
C 218.69 76.77 216.87 74.78 216.00 73.00
C 210.24 76.74 207.35 67.23 201.67 70.67 C 196.00 74.11 192.34 68.05 187.00 70.00
C 189.71 65.79 187.40 66.28 186.00 63.00
C 184.93 67.30 185.51 70.73 185.00 75.00
C 179.76 68.04 178.35 81.15 171.00 76.00
C 164.93 96.71 172.13 118.45 179.00 138.00
C 188.57 131.60 197.70 142.10 201.00 150.00 Z"/>
</g>
<g fill="#767B8F" fill-opacity="0.48" stroke="None">
<path d="
M 241.00 69.00 
C 241.23 69.09 241.76 70.67 242.00 69.00
C 241.79 68.59 241.11 67.26 241.00 67.00
C 241.06 67.66 239.91 67.59 241.00 69.00 Z"/>
</g>
<g fill="#543F43" fill-opacity="1.00" stroke="None">
<path d="
M 110.00 69.00 
C 110.77 71.27 110.42 74.94 111.00 77.00
C 110.93 75.21 112.09 72.23 113.00 71.00
C 116.67 73.65 112.70 75.76 113.00 79.00
C 116.88 78.73 116.63 83.50 117.00 87.00
C 118.26 86.92 117.56 84.94 119.00 85.00
C 118.44 82.25 115.97 80.26 117.00 77.00
C 118.43 77.39 119.57 78.65 121.00 79.00
C 117.99 77.23 116.20 70.68 120.00 69.00
C 118.62 74.94 126.09 75.66 128.00 80.00
C 128.88 76.69 120.21 73.44 121.00 68.00
C 117.39 67.94 116.44 72.10 117.00 75.00
C 116.07 71.23 111.35 69.79 110.00 69.00 Z"/>
</g>
<g fill="#927979" fill-opacity="1.00" stroke="None">
<path d="
M 121.00 79.00 
C 122.78 79.43 126.13 80.96 128.00 80.00
C 126.09 75.66 118.62 74.94 120.00 69.00
C 116.20 70.68 117.99 77.23 121.00 79.00 Z"/>
</g>
<g fill="#535B6E" fill-opacity="1.00" stroke="None">
<path d="
M 176.00 69.00 
C 168.80 68.40 175.19 75.49 176.00 69.00 Z"/>
</g>
<g fill="#536482" fill-opacity="1.00" stroke="None">
<path d="
M 84.00 73.00 
C 78.55 72.57 72.09 69.55 67.26 73.26 C 62.42 76.96 69.60 82.61 66.00 86.00
C 70.84 82.05 71.16 87.41 75.00 89.00
C 79.15 84.12 81.07 77.85 84.00 73.00 Z"/>
</g>
<g fill="#897278" fill-opacity="1.00" stroke="None">
<path d="
M 111.00 77.00 
C 112.14 81.02 112.65 85.97 115.00 89.00
C 117.95 88.36 117.58 91.96 119.00 93.00
C 120.32 90.21 119.76 87.77 119.00 85.00
C 117.56 84.94 118.26 86.92 117.00 87.00
C 116.63 83.50 116.88 78.73 113.00 79.00
C 112.70 75.76 116.67 73.65 113.00 71.00
C 112.09 72.23 110.93 75.21 111.00 77.00 Z"/>
</g>
<g fill="#695658" fill-opacity="1.00" stroke="None">
<path d="
M 160.00 89.00 
C 161.62 94.90 161.04 104.10 166.00 107.00
C 167.71 95.84 158.90 86.65 162.00 76.00
C 157.16 72.77 159.61 86.56 160.00 89.00 Z"/>
</g>
<g fill="#3F3337" fill-opacity="1.00" stroke="None">
<path d="
M 160.00 89.00 
C 160.62 93.45 162.23 98.66 160.00 103.00
C 155.21 101.63 152.11 98.43 147.00 98.00
C 147.14 98.04 148.59 98.84 149.00 99.00
C 151.68 100.05 151.00 102.01 151.00 105.00
C 148.56 105.08 145.60 104.65 144.00 103.00
C 143.51 102.92 143.00 103.00 143.00 103.00
C 139.78 102.47 135.10 102.99 132.00 102.00
C 136.38 104.93 148.43 108.87 154.00 110.00
C 156.78 109.92 162.56 111.42 163.00 108.00
C 171.85 111.04 160.82 117.53 159.08 124.08 C 157.34 130.64 168.59 137.03 161.00 144.00
C 164.51 144.96 168.22 146.22 169.00 150.00
C 171.82 148.70 174.97 148.60 178.00 148.00
C 177.36 153.71 178.48 158.87 180.00 164.00
C 178.24 163.95 176.93 165.53 175.00 165.00
C 171.08 164.97 171.99 162.79 169.00 162.00
C 168.97 162.50 169.00 163.50 169.00 164.00
C 173.65 168.47 182.39 165.53 183.00 159.00
C 177.42 157.71 180.09 151.05 178.00 147.00
C 172.89 149.03 169.14 144.45 164.00 144.00
C 169.80 141.89 165.95 133.84 166.00 129.00
C 156.43 130.51 162.81 117.21 167.00 116.00
C 167.69 110.07 168.83 98.97 165.33 93.67 C 161.83 88.37 165.77 78.51 162.00 76.00
C 158.90 86.65 167.71 95.84 166.00 107.00
C 161.04 104.10 161.62 94.90 160.00 89.00 Z"/>
</g>
<g fill="#31415B" fill-opacity="0.96" stroke="None">
<path d="
M 253.00 105.00 
C 254.07 104.97 253.85 105.42 254.00 103.00
C 252.48 96.81 250.82 90.76 249.00 85.00
C 236.40 89.40 223.75 84.87 214.00 93.00
C 221.23 95.76 228.03 97.94 235.00 94.00
C 235.14 98.48 247.73 104.06 253.00 105.00 Z"/>
</g>
<g fill="#8C7277" fill-opacity="1.00" stroke="None">
<path d="
M 130.00 98.00 
C 128.55 102.11 135.11 101.48 137.00 100.00
C 137.70 96.46 132.71 99.41 132.00 97.00
C 130.76 97.18 130.75 97.15 130.00 98.00 Z"/>
</g>
<g fill="#644F52" fill-opacity="1.00" stroke="None">
<path d="
M 130.00 98.00 
C 127.65 100.69 130.23 100.82 132.00 102.00
C 135.10 102.99 139.78 102.47 143.00 103.00
C 141.69 101.87 140.11 100.53 138.00 101.00
C 137.18 98.99 139.82 99.53 140.00 98.00
C 137.24 97.77 135.03 96.55 132.00 97.00
C 132.71 99.41 137.70 96.46 137.00 100.00
C 135.11 101.48 128.55 102.11 130.00 98.00 Z"/>
</g>
<g fill="#846A69" fill-opacity="1.00" stroke="None">
<path d="
M 143.00 103.00 
C 143.00 103.00 143.51 102.92 144.00 103.00
C 145.88 103.32 150.93 102.20 149.00 99.00
C 148.59 98.84 147.14 98.04 147.00 98.00
C 144.93 97.41 142.16 98.18 140.00 98.00
C 139.82 99.53 137.18 98.99 138.00 101.00
C 140.11 100.53 141.69 101.87 143.00 103.00 Z"/>
</g>
<g fill="#5B6981" fill-opacity="0.99" stroke="None">
<path d="
M 255.00 148.00 
C 254.97 147.50 255.00 147.00 255.00 147.00
C 255.03 146.00 254.98 145.00 255.00 144.00
C 250.68 149.61 244.99 141.81 240.33 143.33 C 235.66 144.86 228.36 141.61 229.00 136.00
C 220.83 135.33 213.53 131.35 205.00 132.00
C 211.05 128.89 205.84 117.63 213.70 116.70 C 221.55 115.76 220.27 108.96 217.00 104.00
C 220.33 106.19 224.70 105.30 225.00 101.00
C 234.36 98.34 242.03 109.26 250.00 105.00
C 251.09 106.01 252.59 107.22 254.00 108.00
C 254.08 107.65 254.87 107.26 255.00 107.00
C 254.76 105.56 254.25 104.00 254.00 103.00
C 253.85 105.42 254.07 104.97 253.00 105.00
C 246.15 104.28 239.67 100.61 233.67 98.33 C 227.68 96.05 219.13 101.27 213.00 100.00
C 213.19 106.57 219.73 108.28 217.00 115.00
C 207.47 112.73 210.72 123.26 206.75 126.75 C 202.79 130.24 200.29 139.80 207.90 135.90 C 215.52 132.01 216.23 136.62 224.00 137.00
C 224.53 143.61 234.17 142.66 237.00 148.00
C 241.31 146.31 245.18 147.45 248.00 151.00
C 249.04 147.88 251.59 147.57 255.00 148.00 Z"/>
</g>
<g fill="#634B4E" fill-opacity="1.00" stroke="None">
<path d="
M 144.00 103.00 
C 145.60 104.65 148.56 105.08 151.00 105.00
C 151.00 102.01 151.68 100.05 149.00 99.00
C 150.93 102.20 145.88 103.32 144.00 103.00 Z"/>
</g>
<g fill="#788196" fill-opacity="0.99" stroke="None">
<path d="
M 255.00 147.00 
C 255.25 146.75 256.00 147.00 256.00 147.00
L 256.00 140.00
C 243.45 148.51 230.35 131.33 218.00 129.00
C 223.66 121.04 218.47 112.90 227.30 107.30 C 236.13 101.69 247.65 118.36 255.00 115.00
C 253.71 113.40 253.58 109.98 254.00 108.00
C 252.59 107.22 251.09 106.01 250.00 105.00
C 242.03 109.26 234.36 98.34 225.00 101.00
C 224.70 105.30 220.33 106.19 217.00 104.00
C 220.27 108.96 221.55 115.76 213.70 116.70 C 205.84 117.63 211.05 128.89 205.00 132.00
C 213.53 131.35 220.83 135.33 229.00 136.00
C 228.36 141.61 235.66 144.86 240.33 143.33 C 244.99 141.81 250.68 149.61 255.00 144.00
C 254.98 145.00 255.03 146.00 255.00 147.00 Z"/>
</g>
<g fill="#998E8E" fill-opacity="1.00" stroke="None">
<path d="
M 55.00 113.00 
C 64.94 110.25 73.55 128.55 76.00 135.00
C 75.81 134.07 75.62 128.94 76.00 128.00
C 76.17 127.57 76.13 126.46 76.00 126.00
C 74.31 122.55 71.09 119.44 70.00 116.00
C 72.01 114.50 74.24 112.65 75.00 110.00
C 74.37 109.03 74.38 107.98 74.00 107.00
C 69.88 96.29 56.84 109.55 55.00 113.00 Z"/>
</g>
<g fill="#9499AD" fill-opacity="1.00" stroke="None">
<path d="
M 256.00 140.00 
L 256.00 139.00
C 254.36 132.41 254.32 122.52 256.00 116.00
L 256.00 115.00
C 255.50 115.00 255.00 115.00 255.00 115.00
C 247.65 118.36 236.13 101.69 227.30 107.30 C 218.47 112.90 223.66 121.04 218.00 129.00
C 230.35 131.33 243.45 148.51 256.00 140.00 Z"/>
</g>
<g fill="#808499" fill-opacity="0.45" stroke="None">
<path d="
M 254.00 108.00 
C 253.58 109.98 253.71 113.40 255.00 115.00
C 255.00 115.00 255.50 115.00 256.00 115.00
L 256.00 109.00
C 254.82 108.95 255.12 107.69 255.00 107.00
C 254.87 107.26 254.08 107.65 254.00 108.00 Z"/>
</g>
<g fill="#887070" fill-opacity="1.00" stroke="None">
<path d="
M 125.00 111.00 
C 126.14 113.31 133.19 111.52 135.22 112.78 C 137.26 114.04 145.03 113.72 145.00 111.00
C 144.53 106.56 135.79 111.03 133.00 108.00
C 130.33 108.00 127.67 108.00 125.00 108.00
C 125.17 108.96 124.78 110.05 125.00 111.00 Z"/>
</g>
<g fill="#645053" fill-opacity="1.00" stroke="None">
<path d="
M 125.00 111.00 
C 125.60 113.67 128.20 112.50 130.00 113.00
C 134.70 113.78 157.04 113.69 151.00 120.00
C 150.75 120.26 151.20 121.90 151.00 122.00
C 156.18 119.84 154.54 115.26 154.00 111.00
C 157.33 111.00 160.67 111.00 164.00 111.00
C 163.25 117.52 157.45 121.79 156.00 128.00
C 151.59 127.12 146.91 127.21 143.00 125.00
C 142.53 129.39 136.45 128.92 133.00 129.00
C 132.18 125.85 136.49 128.17 137.00 126.00
C 128.30 128.94 135.10 129.74 139.99 129.99 C 144.88 130.24 150.63 126.20 154.00 131.00
C 154.83 130.38 155.59 129.60 157.00 130.00
C 156.74 132.39 155.64 134.93 154.00 132.00
C 156.03 137.72 156.70 142.68 161.75 147.25 C 166.80 151.82 168.75 155.56 166.00 162.00
C 166.62 160.94 166.55 160.30 167.00 159.00
C 167.88 156.45 170.02 154.97 168.00 152.00
C 169.77 153.68 171.91 153.98 174.00 155.00
C 173.52 158.53 177.52 161.70 175.00 165.00
C 176.93 165.53 178.24 163.95 180.00 164.00
C 178.48 158.87 177.36 153.71 178.00 148.00
C 174.97 148.60 171.82 148.70 169.00 150.00
C 168.22 146.22 164.51 144.96 161.00 144.00
C 168.59 137.03 157.34 130.64 159.08 124.08 C 160.82 117.53 171.85 111.04 163.00 108.00
C 162.56 111.42 156.78 109.92 154.00 110.00
C 147.97 110.17 140.56 108.00 133.00 108.00
C 135.79 111.03 144.53 106.56 145.00 111.00
C 145.03 113.72 137.26 114.04 135.22 112.78 C 133.19 111.52 126.14 113.31 125.00 111.00
M 156.00 135.00 
C 164.38 134.98 155.76 144.08 156.00 135.00 Z"/>
</g>
<g fill="#32526B" fill-opacity="0.45" stroke="None">
<path d="
M 0.00 116.00 
C 0.50 116.00 1.00 116.00 1.00 116.00
C 1.37 113.57 3.06 111.00 1.00 109.00
C 1.00 109.00 0.50 109.00 0.00 109.00
L 0.00 116.00 Z"/>
</g>
<g fill="#796C6A" fill-opacity="1.00" stroke="None">
<path d="
M 76.00 126.00 
C 74.51 120.85 77.69 116.47 77.00 113.00
C 76.35 111.39 75.83 111.28 75.00 110.00
C 74.24 112.65 72.01 114.50 70.00 116.00
C 71.09 119.44 74.31 122.55 76.00 126.00 Z"/>
</g>
<g fill="#907575" fill-opacity="1.00" stroke="None">
<path d="
M 151.00 122.00 
C 147.33 123.83 141.07 124.63 137.00 126.00
C 136.49 128.17 132.18 125.85 133.00 129.00
C 136.45 128.92 142.53 129.39 143.00 125.00
C 146.91 127.21 151.59 127.12 156.00 128.00
C 157.45 121.79 163.25 117.52 164.00 111.00
C 160.67 111.00 157.33 111.00 154.00 111.00
C 154.54 115.26 156.18 119.84 151.00 122.00 Z"/>
</g>
<g fill="#505057" fill-opacity="1.00" stroke="None">
<path d="
M 140.00 170.00 
C 130.87 150.86 123.68 127.83 110.00 112.00
C 121.04 130.61 129.09 151.49 140.00 170.00 Z"/>
</g>
<g fill="#403D43" fill-opacity="1.00" stroke="None">
<path d="
M 76.00 126.00 
C 76.13 126.46 76.17 127.57 76.00 128.00
C 80.56 133.65 78.02 136.30 81.00 143.00
C 79.12 142.76 79.54 140.45 78.00 140.00
C 81.66 156.53 84.20 173.47 88.00 190.00
C 88.79 177.93 84.67 163.89 84.00 151.00 C 83.33 138.11 81.71 124.72 77.00 113.00
C 77.69 116.47 74.51 120.85 76.00 126.00 Z"/>
</g>
<g fill="#423337" fill-opacity="1.00" stroke="None">
<path d="
M 151.00 120.00 
C 157.04 113.69 134.70 113.78 130.00 113.00
C 132.54 113.70 138.25 115.30 140.93 116.07 C 143.60 116.84 150.34 117.47 151.00 120.00 Z"/>
</g>
<g fill="#344F6C" fill-opacity="0.67" stroke="None">
<path d="
M 0.00 120.00 
C 1.70 119.49 0.80 117.29 1.00 116.00
C 1.00 116.00 0.50 116.00 0.00 116.00
L 0.00 120.00 Z"/>
</g>
<g fill="#979CB1" fill-opacity="0.70" stroke="None">
<path d="
M 256.00 139.00 
L 256.00 116.00
C 254.32 122.52 254.36 132.41 256.00 139.00 Z"/>
</g>
<g fill="#7E7476" fill-opacity="1.00" stroke="None">
<path d="
M 25.00 130.00 
C 25.12 131.50 25.87 133.18 26.00 134.00
C 26.25 135.52 26.69 136.57 27.00 138.00
C 27.14 137.66 29.69 138.27 30.00 138.00
C 31.11 135.03 28.10 133.59 28.00 131.00
C 28.00 129.33 28.00 127.67 28.00 126.00
C 34.48 127.22 42.88 135.58 47.00 126.00
C 42.86 129.72 40.63 125.74 42.00 121.00
C 36.60 123.52 24.26 120.61 25.00 130.00 Z"/>
</g>
<g fill="#7A7071" fill-opacity="1.00" stroke="None">
<path d="
M 76.00 135.00 
C 76.64 136.68 77.50 138.29 78.00 140.00
C 79.54 140.45 79.12 142.76 81.00 143.00
C 78.02 136.30 80.56 133.65 76.00 128.00
C 75.62 128.94 75.81 134.07 76.00 135.00 Z"/>
</g>
<g fill="#353C4C" fill-opacity="1.00" stroke="None">
<path d="
M 19.00 163.00 
C 21.44 159.42 20.68 152.19 21.77 147.77 C 22.87 143.35 26.02 133.88 26.00 134.00
C 25.87 133.18 25.12 131.50 25.00 130.00
C 14.75 133.03 24.84 147.25 16.00 153.00
C 20.60 154.87 17.47 159.85 19.00 163.00 Z"/>
</g>
<g fill="#937B7D" fill-opacity="1.00" stroke="None">
<path d="
M 154.00 131.00 
C 154.00 131.00 153.84 131.56 154.00 132.00
C 155.64 134.93 156.74 132.39 157.00 130.00
C 155.59 129.60 154.83 130.38 154.00 131.00 Z"/>
</g>
<g fill="#463E40" fill-opacity="1.00" stroke="None">
<path d="
M 27.00 138.00 
C 27.17 138.81 26.34 143.83 30.00 143.00
C 28.97 147.54 27.15 151.92 28.00 157.00
C 28.22 157.30 28.88 157.74 29.00 158.00
C 28.38 149.09 31.97 143.32 33.00 135.00
C 31.73 133.72 28.43 132.75 28.00 131.00
C 28.10 133.59 31.11 135.03 30.00 138.00
C 29.69 138.27 27.14 137.66 27.00 138.00 Z"/>
</g>
<g fill="#61595D" fill-opacity="1.00" stroke="None">
<path d="
M 19.00 163.00 
C 19.39 164.71 21.16 163.58 22.00 163.00
C 20.72 165.30 21.58 166.81 22.00 169.00
C 22.69 167.81 24.91 168.13 26.00 168.00
C 26.83 170.59 24.13 171.90 22.00 172.00
C 21.80 173.91 23.22 177.68 23.00 179.00
C 26.39 174.54 29.79 170.03 32.00 165.00
C 28.11 169.74 27.70 165.13 26.00 162.00
C 28.65 162.29 30.95 161.79 29.00 159.00
C 27.05 160.82 24.50 161.46 22.00 162.00
C 23.33 154.13 22.39 146.47 25.00 139.00
C 25.97 140.85 26.79 143.24 29.00 144.00
C 27.67 147.82 25.35 153.36 28.00 157.00
C 27.15 151.92 28.97 147.54 30.00 143.00
C 26.34 143.83 27.17 138.81 27.00 138.00
C 26.69 136.57 26.25 135.52 26.00 134.00
C 26.02 133.88 22.87 143.35 21.77 147.77 C 20.68 152.19 21.44 159.42 19.00 163.00 Z"/>
</g>
<g fill="#8D7577" fill-opacity="1.00" stroke="None">
<path d="
M 156.00 135.00 
C 155.76 144.08 164.38 134.98 156.00 135.00 Z"/>
</g>
<g fill="#344F6C" fill-opacity="0.67" stroke="None">
<path d="
M 0.00 140.00 
C 1.57 139.58 1.34 136.47 0.00 136.00
L 0.00 140.00 Z"/>
</g>
<g fill="#988D89" fill-opacity="1.00" stroke="None">
<path d="
M 29.00 159.00 
C 29.00 159.00 29.00 158.50 29.00 158.00
C 28.88 157.74 28.22 157.30 28.00 157.00
C 25.35 153.36 27.67 147.82 29.00 144.00
C 26.79 143.24 25.97 140.85 25.00 139.00
C 22.39 146.47 23.33 154.13 22.00 162.00
C 24.50 161.46 27.05 160.82 29.00 159.00 Z"/>
</g>
<g fill="#4E4C53" fill-opacity="1.00" stroke="None">
<path d="
M 137.00 179.00 
C 137.68 178.53 139.26 179.37 140.00 179.00
C 140.30 180.57 139.75 182.61 138.00 183.00
C 140.58 187.77 143.76 180.79 148.00 183.00
C 143.05 187.84 149.52 187.94 149.92 184.08 C 150.33 180.21 146.68 177.00 144.00 176.00
C 144.85 163.49 154.72 151.68 154.00 140.00
C 152.10 155.06 141.75 166.60 137.00 179.00 Z"/>
</g>
<g fill="#34506C" fill-opacity="0.62" stroke="None">
<path d="
M 0.00 143.00 
C 2.47 144.94 2.21 141.35 0.00 141.00
L 0.00 143.00 Z"/>
</g>
<g fill="#4D464D" fill-opacity="1.00" stroke="None">
<path d="
M 182.00 143.00 
C 184.77 142.08 185.90 145.19 188.00 146.00
C 189.21 147.19 184.67 147.02 187.00 150.00
C 184.32 150.57 184.96 146.64 183.00 146.00
C 182.88 152.97 190.86 150.97 190.00 145.00
C 186.97 145.63 184.48 140.06 182.00 143.00 Z"/>
</g>
<g fill="#7B7075" fill-opacity="1.00" stroke="None">
<path d="
M 183.00 146.00 
C 184.96 146.64 184.32 150.57 187.00 150.00
C 184.67 147.02 189.21 147.19 188.00 146.00
C 185.90 145.19 184.77 142.08 182.00 143.00
C 182.67 143.94 182.69 144.98 183.00 146.00 Z"/>
</g>
<g fill="#000000" fill-opacity="0.00" stroke="None">
<path d="
M 0.00 256.00 
L 112.00 256.00
C 112.00 255.50 112.00 255.00 112.00 255.00
C 99.47 254.97 87.99 250.19 77.00 246.00
C 75.44 245.40 74.31 244.76 73.00 244.00
C 49.56 230.44 31.66 216.20 17.00 193.00
C 8.26 179.16 3.37 162.67 0.00 147.00
L 0.00 256.00 Z"/>
</g>
<g fill="#000000" fill-opacity="0.00" stroke="None">
<path d="
M 255.00 148.00 
C 255.34 153.09 253.20 158.27 252.00 163.00
C 251.73 164.08 251.30 164.26 251.00 165.00
C 250.57 166.08 250.38 167.79 250.00 169.00
C 248.38 174.17 246.51 179.10 244.00 184.00
C 241.51 188.86 238.68 193.53 236.00 198.00
C 235.31 199.14 234.67 200.06 234.00 201.00
C 232.04 203.75 230.06 206.56 228.00 209.00
C 227.09 210.08 225.87 211.05 225.00 212.00
C 223.23 213.94 221.75 216.12 220.00 218.00
C 218.97 219.11 218.12 220.05 217.00 221.00
C 215.54 222.23 213.52 223.53 212.00 225.00
C 210.95 226.01 210.14 227.09 209.00 228.00
C 197.97 236.82 185.88 242.70 173.00 248.00
C 168.49 249.86 164.11 251.92 159.00 253.00
C 153.63 254.13 148.68 255.00 143.00 255.00
C 143.22 255.13 143.00 256.00 143.00 256.00
L 256.00 256.00
L 256.00 147.00
C 256.00 147.00 255.25 146.75 255.00 147.00
C 255.00 147.00 254.97 147.50 255.00 148.00 Z"/>
</g>
<g fill="#4C4A53" fill-opacity="1.00" stroke="None">
<path d="
M 71.00 150.00 
C 69.36 151.50 71.37 154.93 72.00 157.00
C 74.26 155.35 71.53 152.09 71.00 150.00 Z"/>
</g>
<g fill="#403B46" fill-opacity="1.00" stroke="None">
<path d="
M 202.00 151.00 
C 201.79 150.97 201.11 150.26 201.00 150.00
C 196.21 149.91 191.80 154.52 191.00 159.00
C 195.40 159.31 199.73 157.32 203.00 155.00
C 199.42 155.71 201.31 153.06 199.00 152.00
C 199.78 151.26 201.19 151.41 202.00 151.00 Z"/>
</g>
<g fill="#8D7170" fill-opacity="1.00" stroke="None">
<path d="
M 167.00 159.00 
C 166.83 157.76 169.15 159.57 169.00 162.00
C 171.99 162.79 171.08 164.97 175.00 165.00
C 177.52 161.70 173.52 158.53 174.00 155.00
C 171.91 153.98 169.77 153.68 168.00 152.00
C 170.02 154.97 167.88 156.45 167.00 159.00 Z"/>
</g>
<g fill="#4F4955" fill-opacity="0.99" stroke="None">
<path d="
M 73.00 244.00 
C 74.31 244.76 75.44 245.40 77.00 246.00
C 80.05 246.57 79.62 242.63 82.00 242.00
C 75.45 231.48 71.63 219.31 75.00 207.00
C 79.78 217.42 78.31 229.64 83.00 240.00
C 85.62 238.66 86.20 237.93 88.00 241.00
C 82.72 222.23 72.61 203.61 73.00 184.00
C 67.69 185.55 68.80 176.35 67.00 172.00 C 65.20 167.66 66.83 159.56 63.00 156.00
C 63.50 164.83 65.52 173.03 67.66 181.32 C 69.81 189.61 60.34 197.49 63.00 205.00
C 64.39 198.81 67.84 192.90 69.00 187.00
C 73.35 198.45 63.89 210.01 68.00 221.00
C 69.18 214.26 70.56 207.06 73.00 201.00
C 73.24 206.36 72.35 216.25 69.78 221.78 C 67.21 227.30 69.57 238.50 74.00 239.00
C 75.19 240.11 72.69 243.40 73.00 244.00 Z"/>
</g>
<g fill="#918687" fill-opacity="1.00" stroke="None">
<path d="
M 167.00 159.00 
C 166.55 160.30 166.62 160.94 166.00 162.00
C 151.15 187.43 155.70 216.04 158.00 245.00
C 158.15 245.61 159.27 247.58 160.00 248.00
C 159.36 219.81 151.65 188.94 169.00 165.00
C 169.00 165.00 169.00 164.50 169.00 164.00
C 169.00 163.50 168.97 162.50 169.00 162.00
C 169.15 159.57 166.83 157.76 167.00 159.00 Z"/>
</g>
<g fill="#858A9E" fill-opacity="0.96" stroke="None">
<path d="
M 234.00 162.00 
C 226.63 163.85 218.62 172.61 214.00 178.00
C 218.58 180.57 212.71 191.25 218.10 192.90 C 223.50 194.54 231.00 192.49 234.00 199.00
C 234.49 198.49 235.52 198.40 236.00 198.00
C 238.68 193.53 241.51 188.86 244.00 184.00
C 239.42 187.44 231.26 180.82 228.00 188.00
C 221.28 185.64 217.10 182.86 220.00 175.00
C 224.37 171.08 235.38 174.69 231.00 165.00
C 238.30 163.43 243.84 167.05 250.00 169.00
C 250.38 167.79 250.57 166.08 251.00 165.00
C 251.01 164.83 249.86 163.72 251.00 163.00
C 245.42 163.50 240.35 161.29 234.00 162.00 Z"/>
</g>
<g fill="#453F49" fill-opacity="0.99" stroke="None">
<path d="
M 169.00 165.00 
C 151.65 188.94 159.36 219.81 160.00 248.00
C 159.27 247.58 158.15 245.61 158.00 245.00
C 158.22 247.80 159.42 250.08 159.00 253.00
C 164.11 251.92 168.49 249.86 173.00 248.00
C 171.45 225.47 169.99 199.88 169.00 176.00
C 173.25 179.64 175.15 187.16 181.00 189.00
C 181.43 184.14 182.40 180.34 176.00 182.00
C 175.81 179.48 177.98 177.23 175.00 176.00
C 180.73 173.30 188.54 168.77 190.00 162.00
C 188.27 167.72 170.05 175.24 181.00 168.00
C 176.40 167.29 172.44 169.15 168.00 169.00
C 168.31 167.80 168.44 166.04 169.00 165.00 Z"/>
</g>
<g fill="#707588" fill-opacity="0.96" stroke="None">
<path d="
M 215.00 169.00 
C 212.11 177.12 211.97 184.31 215.00 191.00
C 215.50 194.53 209.32 191.69 211.00 196.00
C 216.18 194.98 214.71 198.73 213.00 201.00
C 218.51 204.42 218.26 211.31 219.00 217.00
C 219.03 217.21 220.00 217.66 220.00 218.00
C 221.75 216.12 223.23 213.94 225.00 212.00
C 225.61 210.88 227.31 209.53 228.00 209.00
C 230.06 206.56 232.04 203.75 234.00 201.00
C 234.05 200.80 233.06 199.98 234.00 199.00
C 231.00 192.49 223.50 194.54 218.10 192.90 C 212.71 191.25 218.58 180.57 214.00 178.00
C 218.62 172.61 226.63 163.85 234.00 162.00
C 230.51 163.06 226.34 162.36 226.00 167.00
C 222.77 167.36 217.49 166.36 215.00 169.00 Z"/>
</g>
<g fill="#707585" fill-opacity="0.26" stroke="None">
<path d="
M 251.00 165.00 
C 251.30 164.26 251.73 164.08 252.00 163.00
C 252.00 163.00 251.50 162.96 251.00 163.00
C 249.86 163.72 251.01 164.83 251.00 165.00 Z"/>
</g>
<g fill="#9B9FB3" fill-opacity="0.97" stroke="None">
<path d="
M 244.00 184.00 
C 246.51 179.10 248.38 174.17 250.00 169.00
C 243.84 167.05 238.30 163.43 231.00 165.00
C 235.38 174.69 224.37 171.08 220.00 175.00
C 217.10 182.86 221.28 185.64 228.00 188.00
C 231.26 180.82 239.42 187.44 244.00 184.00 Z"/>
</g>
<g fill="#998F93" fill-opacity="1.00" stroke="None">
<path d="
M 22.00 169.00 
C 22.16 169.83 22.09 171.16 22.00 172.00
C 24.13 171.90 26.83 170.59 26.00 168.00
C 24.91 168.13 22.69 167.81 22.00 169.00 Z"/>
</g>
<g fill="#484752" fill-opacity="1.00" stroke="None">
<path d="
M 79.00 178.00 
C 79.25 174.30 78.10 168.68 74.00 168.00
C 76.75 170.80 76.96 175.13 79.00 178.00 Z"/>
</g>
<g fill="#6F6E7A" fill-opacity="1.00" stroke="None">
<path d="
M 138.00 183.00 
C 139.75 182.61 140.30 180.57 140.00 179.00
C 139.26 179.37 137.68 178.53 137.00 179.00
C 135.85 182.00 136.46 181.57 138.00 183.00 Z"/>
</g>
<g fill="#4F4A52" fill-opacity="1.00" stroke="None">
<path d="
M 79.00 192.00 
C 80.55 188.30 76.68 180.86 74.00 187.00
C 78.43 184.56 76.08 190.55 79.00 192.00 Z"/>
</g>
<g fill="#9B9EAE" fill-opacity="0.21" stroke="None">
<path d="
M 234.00 199.00 
C 233.06 199.98 234.05 200.80 234.00 201.00
C 234.67 200.06 235.31 199.14 236.00 198.00
C 235.52 198.40 234.49 198.49 234.00 199.00 Z"/>
</g>
<g fill="#757E90" fill-opacity="0.44" stroke="None">
<path d="
M 225.00 212.00 
C 225.87 211.05 227.09 210.08 228.00 209.00
C 227.31 209.53 225.61 210.88 225.00 212.00 Z"/>
</g>
<g fill="#26283B" fill-opacity="0.31" stroke="None">
<path d="
M 217.00 221.00 
C 218.12 220.05 218.97 219.11 220.00 218.00
C 220.00 217.66 219.03 217.21 219.00 217.00
C 217.76 217.67 216.88 221.15 217.00 221.00 Z"/>
</g>
<g fill="#21212A" fill-opacity="0.44" stroke="None">
<path d="
M 209.00 228.00 
C 210.14 227.09 210.95 226.01 212.00 225.00
C 211.23 225.45 209.46 227.47 209.00 228.00 Z"/>
</g>
<g fill="#4F4F54" fill-opacity="1.00" stroke="None">
<path d="
M 91.00 229.00 
C 90.45 228.45 88.30 229.60 89.29 230.63 C 90.29 231.67 91.73 229.73 91.00 229.00 Z"/>
</g>
<g fill="#504D56" fill-opacity="0.97" stroke="None">
<path d="
M 92.00 251.00 
C 92.15 247.57 90.38 244.10 88.00 242.00
C 88.74 245.17 89.73 248.69 92.00 251.00 Z"/>
</g>
<g fill="#191B21" fill-opacity="0.32" stroke="None">
<path d="
M 112.00 256.00 
L 116.00 256.00
C 116.00 255.50 116.00 255.00 116.00 255.00
C 114.67 254.95 113.33 255.00 112.00 255.00
C 112.00 255.00 112.00 255.50 112.00 256.00 Z"/>
</g>
<g fill="#1B1C24" fill-opacity="0.67" stroke="None">
<path d="
M 116.00 256.00 
L 120.00 256.00
C 119.49 254.40 117.28 255.05 116.00 255.00
C 116.00 255.00 116.00 255.50 116.00 256.00 Z"/>
</g>
<g fill="#1C1C22" fill-opacity="0.71" stroke="None">
<path d="
M 136.00 256.00 
L 139.00 256.00
C 139.00 255.50 139.00 255.00 139.00 255.00
C 138.04 255.07 136.27 254.72 136.00 256.00 Z"/>
</g>
<g fill="#1C1D23" fill-opacity="0.41" stroke="None">
<path d="
M 139.00 256.00 
L 143.00 256.00
C 143.00 256.00 143.22 255.13 143.00 255.00
C 141.68 255.00 140.32 254.91 139.00 255.00
C 139.00 255.00 139.00 255.50 139.00 256.00 Z"/>
</g>
</svg>